<svg width="22" height="13" viewBox="0 0 22 13" fill="none" xmlns="http://www.w3.org/2000/svg">
<path d="M0.41433 9.9177C0.767824 9.39851 1.17076 8.87848 1.61748 8.37185M21.3657 9.78684C20.9564 9.23506 20.5442 8.72557 20.13 8.25622M1.61748 8.37185C5.62629 3.82541 13.1609 0.358258 20.13 8.25622M1.61748 8.37185C5.02564 11.0105 13.4996 14.6816 20.13 8.25622" stroke="#D9D9D9" style="stroke:#D9D9D9;stroke:color(display-p3 0.8510 0.8510 0.8510);stroke-opacity:1;"/>
<path d="M11.0323 3.85022C12.7904 3.83924 14.195 5.20387 14.2055 6.86268C14.2159 8.52165 12.8284 9.90455 11.0702 9.91553C9.31208 9.92647 7.90741 8.56103 7.89705 6.90209C7.88688 5.2433 9.27431 3.86124 11.0323 3.85022Z" fill="#D9D9D9" stroke="#D9D9D9" style="fill:#D9D9D9;fill:color(display-p3 0.8510 0.8510 0.8510);fill-opacity:1;stroke:#D9D9D9;stroke:color(display-p3 0.8510 0.8510 0.8510);stroke-opacity:1;"/>
<path d="M18.5226 6.4801L20.9803 4.25219" stroke="#D9D9D9" style="stroke:#D9D9D9;stroke:color(display-p3 0.8510 0.8510 0.8510);stroke-opacity:1;"/>
<path d="M15.0975 4.26318L16.5424 1.27729" stroke="#D9D9D9" style="stroke:#D9D9D9;stroke:color(display-p3 0.8510 0.8510 0.8510);stroke-opacity:1;"/>
<path d="M3.46998 6.54907L1.36385 4.18248" stroke="#D9D9D9" style="stroke:#D9D9D9;stroke:color(display-p3 0.8510 0.8510 0.8510);stroke-opacity:1;"/>
<path d="M7.10356 4.12387L5.75724 1.15283" stroke="#D9D9D9" style="stroke:#D9D9D9;stroke:color(display-p3 0.8510 0.8510 0.8510);stroke-opacity:1;"/>
<path d="M11.1119 3.52031L11.1687 0.0625431" stroke="#D9D9D9" style="stroke:#D9D9D9;stroke:color(display-p3 0.8510 0.8510 0.8510);stroke-opacity:1;"/>
</svg>
