<svg width="337" height="98" viewBox="0 0 337 98" fill="none" xmlns="http://www.w3.org/2000/svg">
<path d="M327 0H10C4.47715 0 0 4.47715 0 10V65.3593C0 68.0106 1.05291 70.5534 2.92723 72.4287L25.4692 94.9815C27.3447 96.8579 29.889 97.9121 32.542 97.9121L327.008 97.9113C332.53 97.9113 337 93.4341 337 87.9113L337 10C337 4.47715 332.523 0 327 0Z" fill="#5E6060" style="fill:#5E6060;fill:color(display-p3 0.3686 0.3765 0.3765);fill-opacity:1;"/>
<path d="M170 12.5C170 7.52944 174.029 3.5 179 3.5H325C329.971 3.5 334 7.52944 334 12.5V64.5C334 69.4706 329.971 73.5 325 73.5H179C174.029 73.5 170 69.4706 170 64.5V12.5Z" fill="#1B1B1B" style="fill:#1B1B1B;fill:color(display-p3 0.1059 0.1059 0.1059);fill-opacity:1;"/>
<path d="M3 11.5C3 6.52944 7.02944 2.5 12 2.5H158C162.971 2.5 167 6.52944 167 11.5V64.5C167 69.4706 162.971 73.5 158 73.5H12C7.02944 73.5 3 69.4706 3 64.5V11.5Z" fill="#1B1B1B" style="fill:#1B1B1B;fill:color(display-p3 0.1059 0.1059 0.1059);fill-opacity:1;"/>
</svg>
