<svg width="153" height="91" viewBox="0 0 153 91" fill="none" xmlns="http://www.w3.org/2000/svg">
<path fill-rule="evenodd" clip-rule="evenodd" d="M147.224 12.23H81.0867C78.835 12.23 77.0097 14.0554 77.0097 16.307V39.8629C77.0097 42.1146 78.835 43.9399 81.0867 43.9399H147.224C149.476 43.9399 151.301 42.1146 151.301 39.8629V16.307C151.301 14.0554 149.476 12.23 147.224 12.23ZM71.5737 11.777H5.43598C3.18432 11.777 1.35899 13.6024 1.35899 15.854V39.8629C1.35899 42.1146 3.18432 43.9399 5.43598 43.9399H71.5737C73.8254 43.9399 75.6507 42.1146 75.6507 39.8629V15.854C75.6507 13.6024 73.8254 11.777 71.5737 11.777Z" fill="#5E6060" style="fill:#5E6060;fill:color(display-p3 0.3686 0.3765 0.3765);fill-opacity:1;"/>
<path d="M77.0097 16.307C77.0097 14.0554 78.835 12.23 81.0867 12.23H147.224C149.476 12.23 151.301 14.0554 151.301 16.307V39.8629C151.301 42.1146 149.476 43.9399 147.224 43.9399H81.0867C78.835 43.9399 77.0097 42.1146 77.0097 39.8629V16.307Z" fill="#1B1B1B" style="fill:#1B1B1B;fill:color(display-p3 0.1059 0.1059 0.1059);fill-opacity:1;"/>
<path d="M1.35899 15.854C1.35899 13.6024 3.18432 11.777 5.43598 11.777H71.5737C73.8254 11.777 75.6507 13.6024 75.6507 15.854V39.8629C75.6507 42.1146 73.8254 43.9399 71.5737 43.9399H5.43598C3.18432 43.9399 1.35899 42.1146 1.35899 39.8629V15.854Z" fill="#1B1B1B" style="fill:#1B1B1B;fill:color(display-p3 0.1059 0.1059 0.1059);fill-opacity:1;"/>
<path d="M148.13 10.6445H4.52998C2.02814 10.6445 0 12.6727 0 15.1745V40.2522C0 41.4532 0.476965 42.6051 1.32603 43.4546L11.5375 53.671C12.3871 54.521 13.5397 54.9986 14.7415 54.9986L148.134 54.9981C150.636 54.9981 152.66 52.97 152.66 50.4682L152.66 15.1745C152.66 12.6727 150.632 10.6445 148.13 10.6445ZM81.0867 12.23H147.224C149.476 12.23 151.301 14.0554 151.301 16.307V39.8629C151.301 42.1146 149.476 43.9399 147.224 43.9399H81.0867C78.835 43.9399 77.0097 42.1146 77.0097 39.8629V16.307C77.0097 14.0554 78.835 12.23 81.0867 12.23ZM5.43598 11.777H71.5737C73.8254 11.777 75.6507 13.6024 75.6507 15.854V39.8629C75.6507 42.1146 73.8254 43.9399 71.5737 43.9399H5.43598C3.18432 43.9399 1.35899 42.1146 1.35899 39.8629V15.854C1.35899 13.6024 3.18432 11.777 5.43598 11.777Z" fill="#5E6060" style="fill:#5E6060;fill:color(display-p3 0.3686 0.3765 0.3765);fill-opacity:1;"/>
<mask id="path-2-inside-1_645_2757" fill="white">
<path d="M7.19901 0.552092L4.34841 5.33689V7.72928L3.81663 7.36122V5.33689L0.98047 0.552092H7.19901ZM8.15397 0H0L3.19068 5.55551V7.72928L4.96328 8.83346V5.55551L8.15397 0Z"/>
</mask>
<path d="M7.19901 0.552092L4.34841 5.33689V7.72928L3.81663 7.36122V5.33689L0.98047 0.552092H7.19901ZM8.15397 0H0L3.19068 5.55551V7.72928L4.96328 8.83346V5.55551L8.15397 0Z" fill="#D9D9D9" style="fill:#D9D9D9;fill:color(display-p3 0.8510 0.8510 0.8510);fill-opacity:1;"/>
<path d="M7.19901 0.552092L8.36652 1.24765L9.59054 -0.806903H7.19901V0.552092ZM4.34841 5.33689L3.18091 4.64133L2.98942 4.96275V5.33689H4.34841ZM4.34841 7.72928L3.57499 8.84673L5.70741 10.3226L5.70741 7.72928H4.34841ZM3.81663 7.36122H2.45764V8.07337L3.04321 8.47867L3.81663 7.36122ZM3.81663 5.33689H5.17563V4.96438L4.98569 4.64393L3.81663 5.33689ZM0.98047 0.552092V-0.806903H-1.40486L-0.188583 1.24504L0.98047 0.552092ZM8.15397 0L9.33243 0.676824L10.5017 -1.35899H8.15397V0ZM0 0V-1.35899H-2.34769L-1.17846 0.676824L0 0ZM3.19068 5.55551H4.54968V5.19302L4.36915 4.87869L3.19068 5.55551ZM3.19068 7.72928H1.83169V8.48383L2.47215 8.88279L3.19068 7.72928ZM4.96328 8.83346L4.24475 9.98697L6.32228 11.2811V8.83346H4.96328ZM4.96328 5.55551L3.78482 4.87869L3.60429 5.19302V5.55551H4.96328ZM7.19901 0.552092L6.03151 -0.143464L3.18091 4.64133L4.34841 5.33689L5.51592 6.03244L8.36652 1.24765L7.19901 0.552092ZM4.34841 5.33689H2.98942V7.72928H4.34841H5.70741V5.33689H4.34841ZM4.34841 7.72928L5.12183 6.61183L4.59005 6.24377L3.81663 7.36122L3.04321 8.47867L3.57499 8.84673L4.34841 7.72928ZM3.81663 7.36122H5.17563V5.33689H3.81663H2.45764V7.36122H3.81663ZM3.81663 5.33689L4.98569 4.64393L2.14952 -0.140859L0.98047 0.552092L-0.188583 1.24504L2.64758 6.02984L3.81663 5.33689ZM0.98047 0.552092V1.91109H7.19901V0.552092V-0.806903H0.98047V0.552092ZM8.15397 0V-1.35899H0V0V1.35899H8.15397V0ZM0 0L-1.17846 0.676824L2.01222 6.23234L3.19068 5.55551L4.36915 4.87869L1.17846 -0.676824L0 0ZM3.19068 5.55551H1.83169V7.72928H3.19068H4.54968V5.55551H3.19068ZM3.19068 7.72928L2.47215 8.88279L4.24475 9.98697L4.96328 8.83346L5.68182 7.67996L3.90922 6.57578L3.19068 7.72928ZM4.96328 8.83346H6.32228V5.55551H4.96328H3.60429V8.83346H4.96328ZM4.96328 5.55551L6.14175 6.23234L9.33243 0.676824L8.15397 0L6.9755 -0.676824L3.78482 4.87869L4.96328 5.55551Z" fill="#D9D9D9" style="fill:#D9D9D9;fill:color(display-p3 0.8510 0.8510 0.8510);fill-opacity:1;" mask="url(#path-2-inside-1_645_2757)"/>
<path d="M12.6881 32.9141V30.5675L10.5047 26.862H11.4378L13.1139 29.7884L14.781 26.862H15.7141L13.5398 30.5675V32.9141H12.6881ZM18.0763 32.9141V30.5675L15.8929 26.862H16.826L18.5021 29.7884L20.1692 26.862H21.1023L18.928 30.5675V32.9141H18.0763ZM23.4645 32.9141V30.5675L21.2811 26.862H22.2142L23.8903 29.7884L25.5574 26.862H26.4905L24.3162 30.5675V32.9141H23.4645ZM28.8527 32.9141V30.5675L26.6693 26.862H27.6024L29.2785 29.7884L30.9456 26.862H31.8787L29.7044 30.5675V32.9141H28.8527ZM36.0706 32.9141V26.862H37.484L39.0966 31.8087L40.7093 26.862H42.1227V32.9141H41.271V27.7499L39.5225 32.9141H38.6799L36.9222 27.7499V32.9141H36.0706ZM43.5026 32.9141V26.862H44.916L46.5286 31.8087L48.1413 26.862H49.5547V32.9141H48.703V27.7499L46.9545 32.9141H46.1119L44.3542 27.7499V32.9141H43.5026ZM54.3498 32.9141V26.862H55.9987C56.4819 26.862 56.9228 26.9133 57.3215 27.016C57.7261 27.1127 58.0765 27.2757 58.3724 27.5053C58.6684 27.7348 58.8979 28.0458 59.061 28.4384C59.2241 28.825 59.3056 29.3052 59.3056 29.879C59.3056 30.4588 59.2241 30.945 59.061 31.3376C58.8979 31.7242 58.6684 32.0352 58.3724 32.2708C58.0765 32.5003 57.7261 32.6664 57.3215 32.7691C56.9228 32.8657 56.4819 32.9141 55.9987 32.9141H54.3498ZM55.2014 32.1983H55.9806C56.2947 32.1983 56.5967 32.1742 56.8866 32.1258C57.1825 32.0715 57.4453 31.9688 57.6748 31.8178C57.9104 31.6608 58.0946 31.4282 58.2275 31.1202C58.3664 30.8061 58.4358 30.3924 58.4358 29.879C58.4358 29.3656 58.3664 28.9579 58.2275 28.6559C58.0946 28.3478 57.9104 28.1183 57.6748 27.9673C57.4453 27.8103 57.1825 27.7076 56.8866 27.6593C56.5967 27.6049 56.2947 27.5777 55.9806 27.5777H55.2014V32.1983ZM60.4458 32.9141V26.862H62.0947C62.5779 26.862 63.0188 26.9133 63.4175 27.016C63.8222 27.1127 64.1725 27.2757 64.4684 27.5053C64.7644 27.7348 64.9939 28.0458 65.157 28.4384C65.3201 28.825 65.4016 29.3052 65.4016 29.879C65.4016 30.4588 65.3201 30.945 65.157 31.3376C64.9939 31.7242 64.7644 32.0352 64.4684 32.2708C64.1725 32.5003 63.8222 32.6664 63.4175 32.7691C63.0188 32.8657 62.5779 32.9141 62.0947 32.9141H60.4458ZM61.2974 32.1983H62.0766C62.3907 32.1983 62.6927 32.1742 62.9826 32.1258C63.2786 32.0715 63.5413 31.9688 63.7708 31.8178C64.0064 31.6608 64.1906 31.4282 64.3235 31.1202C64.4624 30.8061 64.5318 30.3924 64.5318 29.879C64.5318 29.3656 64.4624 28.9579 64.3235 28.6559C64.1906 28.3478 64.0064 28.1183 63.7708 27.9673C63.5413 27.8103 63.2786 27.7076 62.9826 27.6593C62.6927 27.6049 62.3907 27.5777 62.0766 27.5777H61.2974V32.1983Z" fill="#5E6060" style="fill:#5E6060;fill:color(display-p3 0.3686 0.3765 0.3765);fill-opacity:1;"/>
<path d="M32.1028 32.9141L34.4584 26.862H35.2466L32.891 32.9141H32.1028ZM50.382 32.9141L52.7375 26.862H53.5258L51.1702 32.9141H50.382Z" fill="#D9D9D9" style="fill:#D9D9D9;fill:color(display-p3 0.8510 0.8510 0.8510);fill-opacity:1;"/>
<path d="M88.7975 32.9141V30.5675L86.614 26.862H87.5472L89.2233 29.7884L90.8903 26.862H91.8235L89.6491 30.5675V32.9141H88.7975ZM94.1857 32.9141V30.5675L92.0022 26.862H92.9354L94.6115 29.7884L96.2785 26.862H97.2117L95.0373 30.5675V32.9141H94.1857ZM99.5739 32.9141V30.5675L97.3904 26.862H98.3236L99.9997 29.7884L101.667 26.862H102.6L100.426 30.5675V32.9141H99.5739ZM104.962 32.9141V30.5675L102.779 26.862H103.712L105.388 29.7884L107.055 26.862H107.988L105.814 30.5675V32.9141H104.962ZM112.18 32.9141V26.862H113.593L115.206 31.8087L116.819 26.862H118.232V32.9141H117.38V27.7499L115.632 32.9141H114.789L113.032 27.7499V32.9141H112.18ZM119.612 32.9141V26.862H121.025L122.638 31.8087L124.251 26.862H125.664V32.9141H124.812V27.7499L123.064 32.9141H122.221L120.464 27.7499V32.9141H119.612ZM130.459 32.9141V26.862H132.108C132.591 26.862 133.032 26.9133 133.431 27.016C133.836 27.1127 134.186 27.2757 134.482 27.5053C134.778 27.7348 135.007 28.0458 135.17 28.4384C135.333 28.825 135.415 29.3052 135.415 29.879C135.415 30.4588 135.333 30.945 135.17 31.3376C135.007 31.7242 134.778 32.0352 134.482 32.2708C134.186 32.5003 133.836 32.6664 133.431 32.7691C133.032 32.8657 132.591 32.9141 132.108 32.9141H130.459ZM131.311 32.1983H132.09C132.404 32.1983 132.706 32.1742 132.996 32.1258C133.292 32.0715 133.555 31.9688 133.784 31.8178C134.02 31.6608 134.204 31.4282 134.337 31.1202C134.476 30.8061 134.545 30.3924 134.545 29.879C134.545 29.3656 134.476 28.9579 134.337 28.6559C134.204 28.3478 134.02 28.1183 133.784 27.9673C133.555 27.8103 133.292 27.7076 132.996 27.6593C132.706 27.6049 132.404 27.5777 132.09 27.5777H131.311V32.1983ZM136.555 32.9141V26.862H138.204C138.687 26.862 139.128 26.9133 139.527 27.016C139.932 27.1127 140.282 27.2757 140.578 27.5053C140.874 27.7348 141.103 28.0458 141.266 28.4384C141.429 28.825 141.511 29.3052 141.511 29.879C141.511 30.4588 141.429 30.945 141.266 31.3376C141.103 31.7242 140.874 32.0352 140.578 32.2708C140.282 32.5003 139.932 32.6664 139.527 32.7691C139.128 32.8657 138.687 32.9141 138.204 32.9141H136.555ZM137.407 32.1983H138.186C138.5 32.1983 138.802 32.1742 139.092 32.1258C139.388 32.0715 139.651 31.9688 139.88 31.8178C140.116 31.6608 140.3 31.4282 140.433 31.1202C140.572 30.8061 140.641 30.3924 140.641 29.879C140.641 29.3656 140.572 28.9579 140.433 28.6559C140.3 28.3478 140.116 28.1183 139.88 27.9673C139.651 27.8103 139.388 27.7076 139.092 27.6593C138.802 27.6049 138.5 27.5777 138.186 27.5777H137.407V32.1983Z" fill="#5E6060" style="fill:#5E6060;fill:color(display-p3 0.3686 0.3765 0.3765);fill-opacity:1;"/>
<path d="M108.212 32.9141L110.568 26.862H111.356L109 32.9141H108.212ZM126.491 32.9141L128.847 26.862H129.635L127.28 32.9141H126.491Z" fill="#D9D9D9" style="fill:#D9D9D9;fill:color(display-p3 0.8510 0.8510 0.8510);fill-opacity:1;"/>
<path d="M4.65332 18.5898V16.0635H4.15865V15.6689H4.65332V15.2331C4.65332 15.0329 4.67295 14.8739 4.71221 14.7561C4.75147 14.6383 4.82803 14.5559 4.94188 14.5088C5.05573 14.4577 5.22063 14.4322 5.43656 14.4322H5.75456V14.8503H5.44833C5.3227 14.8503 5.24026 14.8759 5.201 14.9269C5.16566 14.9779 5.148 15.0781 5.148 15.2272V15.6689H5.75456V16.0635H5.148V18.5898H4.65332ZM6.31134 18.5898V15.6689H6.67057L6.82957 16.2107C6.93165 16.034 7.06906 15.8927 7.2418 15.7867C7.41847 15.6768 7.62851 15.6218 7.87192 15.6218V16.1341C7.84444 16.1341 7.815 16.1341 7.78359 16.1341C7.75611 16.1341 7.72862 16.1361 7.70114 16.14C7.36743 16.1675 7.13384 16.2833 7.00035 16.4875C6.8708 16.6916 6.80602 16.9743 6.80602 17.3355V18.5898H6.31134ZM9.52581 18.6605C9.35699 18.6605 9.19013 18.6311 9.02524 18.5722C8.86035 18.5133 8.7092 18.423 8.57179 18.3013C8.43831 18.1757 8.33034 18.0167 8.2479 17.8243C8.16545 17.6319 8.12423 17.4042 8.12423 17.1412C8.12423 16.8781 8.16545 16.6504 8.2479 16.458C8.33034 16.2657 8.43831 16.1086 8.57179 15.9869C8.7092 15.8613 8.86035 15.769 9.02524 15.7101C9.19013 15.6512 9.35699 15.6218 9.52581 15.6218C9.69462 15.6218 9.86148 15.6512 10.0264 15.7101C10.1952 15.769 10.3463 15.8613 10.4798 15.9869C10.6172 16.1086 10.7252 16.2657 10.8037 16.458C10.8862 16.6504 10.9274 16.8781 10.9274 17.1412C10.9274 17.4042 10.8862 17.6319 10.8037 17.8243C10.7252 18.0167 10.6172 18.1757 10.4798 18.3013C10.3463 18.423 10.1952 18.5133 10.0264 18.5722C9.86148 18.6311 9.69462 18.6605 9.52581 18.6605ZM9.52581 18.2247C9.66714 18.2247 9.80455 18.1874 9.93803 18.1128C10.0715 18.0343 10.1814 17.9165 10.2678 17.7595C10.3542 17.5985 10.3974 17.3924 10.3974 17.1412C10.3974 16.8899 10.3542 16.6857 10.2678 16.5287C10.1814 16.3677 10.0715 16.25 9.93803 16.1754C9.80455 16.0968 9.66714 16.0576 9.52581 16.0576C9.3884 16.0576 9.25099 16.0968 9.11358 16.1754C8.98009 16.25 8.87017 16.3677 8.78379 16.5287C8.69742 16.6857 8.65424 16.8899 8.65424 17.1412C8.65424 17.3924 8.69742 17.5985 8.78379 17.7595C8.87017 17.9165 8.98009 18.0343 9.11358 18.1128C9.25099 18.1874 9.3884 18.2247 9.52581 18.2247ZM11.562 18.5898V15.6689H11.9271L12.0566 16.1106C12.1391 15.9732 12.251 15.8574 12.3923 15.7631C12.5376 15.6689 12.7182 15.6218 12.9341 15.6218C13.1579 15.6218 13.3385 15.6669 13.4759 15.7572C13.6133 15.8475 13.7134 15.9732 13.7762 16.1341C13.894 15.9535 14.0353 15.824 14.2002 15.7455C14.369 15.663 14.5555 15.6218 14.7597 15.6218C15.0973 15.6218 15.3388 15.7258 15.484 15.9339C15.6293 16.1381 15.7019 16.407 15.7019 16.7407V18.5898H15.2072V16.8879C15.2072 16.7387 15.1915 16.6013 15.1601 16.4757C15.1326 16.3461 15.0738 16.2421 14.9835 16.1636C14.8971 16.0851 14.7636 16.0458 14.583 16.0458C14.371 16.0458 14.2002 16.1283 14.0707 16.2931C13.945 16.4541 13.8822 16.6916 13.8822 17.0057V18.5898H13.3875V16.8879C13.3875 16.7387 13.3718 16.6013 13.3404 16.4757C13.313 16.3461 13.2541 16.2421 13.1638 16.1636C13.0774 16.0851 12.9439 16.0458 12.7633 16.0458C12.5513 16.0458 12.3805 16.1283 12.251 16.2931C12.1214 16.4541 12.0566 16.6916 12.0566 17.0057V18.5898H11.562Z" fill="#D9D9D9" style="fill:#D9D9D9;fill:color(display-p3 0.8510 0.8510 0.8510);fill-opacity:1;"/>
<path d="M81.028 18.5898C80.8435 18.5898 80.7002 18.5722 80.5981 18.5368C80.5 18.4976 80.4313 18.425 80.392 18.319C80.3567 18.2129 80.339 18.0598 80.339 17.8596V16.0635H79.8443V15.6689H80.339V14.9328H80.8337V15.6689H81.399V16.0635H80.8337V17.7772C80.8337 17.9264 80.8474 18.0265 80.8749 18.0775C80.9063 18.1285 80.9927 18.1541 81.134 18.1541H81.399V18.5898H81.028ZM83.2612 18.6605C83.0924 18.6605 82.9256 18.6311 82.7607 18.5722C82.5958 18.5133 82.4446 18.423 82.3072 18.3013C82.1737 18.1757 82.0658 18.0167 81.9833 17.8243C81.9009 17.6319 81.8597 17.4042 81.8597 17.1412C81.8597 16.8781 81.9009 16.6504 81.9833 16.458C82.0658 16.2657 82.1737 16.1086 82.3072 15.9869C82.4446 15.8613 82.5958 15.769 82.7607 15.7101C82.9256 15.6512 83.0924 15.6218 83.2612 15.6218C83.4301 15.6218 83.5969 15.6512 83.7618 15.7101C83.9306 15.769 84.0818 15.8613 84.2153 15.9869C84.3527 16.1086 84.4606 16.2657 84.5391 16.458C84.6216 16.6504 84.6628 16.8781 84.6628 17.1412C84.6628 17.4042 84.6216 17.6319 84.5391 17.8243C84.4606 18.0167 84.3527 18.1757 84.2153 18.3013C84.0818 18.423 83.9306 18.5133 83.7618 18.5722C83.5969 18.6311 83.4301 18.6605 83.2612 18.6605ZM83.2612 18.2247C83.4026 18.2247 83.54 18.1874 83.6735 18.1128C83.8069 18.0343 83.9169 17.9165 84.0032 17.7595C84.0896 17.5985 84.1328 17.3924 84.1328 17.1412C84.1328 16.8899 84.0896 16.6857 84.0032 16.5287C83.9169 16.3677 83.8069 16.25 83.6735 16.1754C83.54 16.0968 83.4026 16.0576 83.2612 16.0576C83.1238 16.0576 82.9864 16.0968 82.849 16.1754C82.7155 16.25 82.6056 16.3677 82.5192 16.5287C82.4329 16.6857 82.3897 16.8899 82.3897 17.1412C82.3897 17.3924 82.4329 17.5985 82.5192 17.7595C82.6056 17.9165 82.7155 18.0343 82.849 18.1128C82.9864 18.1874 83.1238 18.2247 83.2612 18.2247Z" fill="#D9D9D9" style="fill:#D9D9D9;fill:color(display-p3 0.8510 0.8510 0.8510);fill-opacity:1;"/>
<path d="M9.32532 54.8135H0.452998C0.202814 54.8135 0 54.6107 0 54.3605V45.4882C0 45.0846 0.487944 44.8825 0.773317 45.1678L9.64564 54.0402C9.93101 54.3255 9.7289 54.8135 9.32532 54.8135Z" fill="#F1F1F3" style="fill:#F1F1F3;fill:color(display-p3 0.9451 0.9451 0.9529);fill-opacity:1;"/>
<path d="M61.216 86V75.312H64.128C64.9813 75.312 65.76 75.4027 66.464 75.584C67.1787 75.7547 67.7973 76.0427 68.32 76.448C68.8427 76.8533 69.248 77.4027 69.536 78.096C69.824 78.7787 69.968 79.6267 69.968 80.64C69.968 81.664 69.824 82.5227 69.536 83.216C69.248 83.8987 68.8427 84.448 68.32 84.864C67.7973 85.2693 67.1787 85.5627 66.464 85.744C65.76 85.9147 64.9813 86 64.128 86H61.216ZM62.72 84.736H64.096C64.6507 84.736 65.184 84.6933 65.696 84.608C66.2187 84.512 66.6827 84.3307 67.088 84.064C67.504 83.7867 67.8293 83.376 68.064 82.832C68.3093 82.2773 68.432 81.5467 68.432 80.64C68.432 79.7333 68.3093 79.0133 68.064 78.48C67.8293 77.936 67.504 77.5307 67.088 77.264C66.6827 76.9867 66.2187 76.8053 65.696 76.72C65.184 76.624 64.6507 76.576 64.096 76.576H62.72V84.736ZM73.6565 86.192C73.1552 86.192 72.6965 86.1013 72.2805 85.92C71.8645 85.7387 71.5338 85.4773 71.2885 85.136C71.0432 84.7947 70.9205 84.384 70.9205 83.904C70.9205 83.2747 71.1392 82.7787 71.5765 82.416C72.0245 82.0533 72.6485 81.776 73.4485 81.584C74.2592 81.3813 75.2032 81.2213 76.2805 81.104C76.3018 80.432 76.1685 79.9147 75.8805 79.552C75.5925 79.1893 75.1285 79.008 74.4885 79.008C74.0085 79.008 73.6138 79.12 73.3045 79.344C73.0058 79.5573 72.8138 79.856 72.7285 80.24L71.4325 79.856C71.6458 79.248 72.0245 78.7787 72.5685 78.448C73.1232 78.1067 73.7578 77.936 74.4725 77.936C75.5712 77.936 76.3712 78.1973 76.8725 78.72C77.3845 79.232 77.6405 80.0427 77.6405 81.152V83.008C77.6405 83.6693 77.6672 84.24 77.7205 84.72C77.7738 85.2 77.8378 85.6267 77.9125 86H76.6805L76.3605 84.912C76.1258 85.3067 75.7898 85.6213 75.3525 85.856C74.9152 86.08 74.3498 86.192 73.6565 86.192ZM73.9445 85.12C74.3605 85.12 74.7552 85.0453 75.1285 84.896C75.5018 84.7467 75.8058 84.496 76.0405 84.144C76.2752 83.7813 76.3925 83.2907 76.3925 82.672V82.176C75.5818 82.2613 74.8778 82.368 74.2805 82.496C73.6832 82.6133 73.2192 82.784 72.8885 83.008C72.5685 83.2213 72.4085 83.5093 72.4085 83.872C72.4085 84.2453 72.5418 84.5493 72.8085 84.784C73.0858 85.008 73.4645 85.12 73.9445 85.12ZM82.2704 86C81.769 86 81.3797 85.952 81.1024 85.856C80.8357 85.7493 80.649 85.552 80.5424 85.264C80.4464 84.976 80.3984 84.56 80.3984 84.016V79.136H79.0544V78.064H80.3984V76.064H81.7424V78.064H83.2784V79.136H81.7424V83.792C81.7424 84.1973 81.7797 84.4693 81.8544 84.608C81.9397 84.7467 82.1744 84.816 82.5584 84.816H83.2784V86H82.2704ZM88.4179 86.192C87.5859 86.192 86.8819 86.0107 86.3059 85.648C85.7299 85.2747 85.2872 84.7787 84.9779 84.16C84.6792 83.5307 84.5299 82.8267 84.5299 82.048C84.5299 81.2053 84.7005 80.48 85.0419 79.872C85.3832 79.2533 85.8419 78.7787 86.4179 78.448C87.0045 78.1067 87.6605 77.936 88.3859 77.936C89.0152 77.936 89.5699 78.064 90.0499 78.32C90.5299 78.5653 90.9245 78.9013 91.2339 79.328C91.5539 79.744 91.7832 80.2187 91.9219 80.752C92.0712 81.2853 92.1245 81.8347 92.0819 82.4H85.9699C85.9912 83.0613 86.1352 83.584 86.4019 83.968C86.6792 84.352 87.0045 84.624 87.3779 84.784C87.7512 84.9333 88.0979 85.008 88.4179 85.008C88.8659 85.008 89.2392 84.9387 89.5379 84.8C89.8472 84.6507 90.0925 84.4587 90.2739 84.224L91.5699 84.608C91.2819 85.0667 90.8712 85.4453 90.3379 85.744C89.8045 86.0427 89.1645 86.192 88.4179 86.192ZM85.9859 81.328H90.6579C90.6579 80.9547 90.5619 80.5973 90.3699 80.256C90.1885 79.9147 89.9272 79.6373 89.5859 79.424C89.2552 79.2 88.8552 79.088 88.3859 79.088C87.9912 79.088 87.6179 79.1627 87.2659 79.312C86.9139 79.4613 86.6205 79.7013 86.3859 80.032C86.1619 80.3627 86.0285 80.7947 85.9859 81.328Z" fill="#D9D9D9" style="fill:#D9D9D9;fill:color(display-p3 0.8510 0.8510 0.8510);fill-opacity:1;"/>
</svg>
