<svg width="126" height="172" viewBox="0 0 126 172" fill="none" xmlns="http://www.w3.org/2000/svg">
<path d="M83.8571 13.0859H11.3071C5.40322 13.0859 0.617188 17.872 0.617188 23.7758V95.8067C0.617188 98.6409 1.74273 101.359 3.74636 103.364L10.8634 110.484C12.8683 112.49 15.5881 113.617 18.4241 113.617H92.409C93.5898 113.617 94.547 112.66 94.547 111.479L94.547 23.7758C94.547 17.872 89.761 13.0859 83.8571 13.0859Z" fill="#5E6060" style="fill:#5E6060;fill:color(display-p3 0.3686 0.3765 0.3765);fill-opacity:1;"/>
<path d="M6.0011 113.655H2.46611C1.28533 113.655 0.328125 112.698 0.328125 111.517V107.982C0.328125 106.077 2.63103 105.123 3.97788 106.47L7.51288 110.005C8.85974 111.352 7.90584 113.655 6.0011 113.655Z" fill="#5ABA67" style="fill:#5ABA67;fill:color(display-p3 0.3526 0.7287 0.4050);fill-opacity:1;"/>
<rect x="1.73438" y="14.2617" width="91.3868" height="88.0893" rx="9.62091" fill="#1B1B1B" style="fill:#1B1B1B;fill:color(display-p3 0.1059 0.1059 0.1059);fill-opacity:1;"/>
<path d="M6.83423 6.69935L9.28387 9.14899M7.80923 4.30305C7.80923 6.23731 6.24121 7.80533 4.30696 7.80533C2.37271 7.80533 0.804688 6.23731 0.804688 4.30305C0.804688 2.3688 2.37271 0.800781 4.30696 0.800781C6.24121 0.800781 7.80923 2.3688 7.80923 4.30305Z" stroke="#D9D9D9" style="stroke:#D9D9D9;stroke:color(display-p3 0.8510 0.8510 0.8510);stroke-opacity:1;" stroke-width="1.60349" stroke-linecap="round"/>
<path d="M40.849 68.7113C40.3341 68.7113 39.8933 68.528 39.5266 68.1613C39.1599 67.7946 38.9766 67.3538 38.9766 66.8389V53.7318C38.9766 53.2169 39.1599 52.7761 39.5266 52.4094C39.8933 52.0427 40.3341 51.8594 40.849 51.8594H48.3388V53.7318H40.849V66.8389H53.9561V59.3491H55.8285V66.8389C55.8285 67.3538 55.6452 67.7946 55.2785 68.1613C54.9118 68.528 54.471 68.7113 53.9561 68.7113H40.849ZM41.7852 64.9665H53.0199L49.509 60.2854L46.7004 64.0302L44.5939 61.2216L41.7852 64.9665ZM52.0836 57.4767V55.6043H50.2112V53.7318H52.0836V51.8594H53.9561V53.7318H55.8285V55.6043H53.9561V57.4767H52.0836Z" fill="#D9D9D9" style="fill:#D9D9D9;fill:color(display-p3 0.8510 0.8510 0.8510);fill-opacity:1;"/>
<circle cx="88.3801" cy="107.954" r="3.03639" fill="#F1F1F3" style="fill:#F1F1F3;fill:color(display-p3 0.9451 0.9451 0.9529);fill-opacity:1;"/>
<path d="M4.38412 166.801V165.617H5.88813V157.297H4.38412V156.113H8.89613V157.297H7.39213V165.617H8.89613V166.801H4.38412ZM11.0731 166.801V158.865H12.0651L12.4171 160.065C12.6411 159.691 12.9451 159.377 13.3291 159.121C13.7238 158.865 14.2145 158.737 14.8011 158.737C15.4091 158.737 15.8998 158.859 16.2731 159.105C16.6465 159.35 16.9185 159.691 17.0891 160.129C17.4091 159.638 17.7931 159.286 18.2411 159.073C18.6998 158.849 19.2065 158.737 19.7611 158.737C20.6785 158.737 21.3345 159.019 21.7291 159.585C22.1238 160.139 22.3211 160.87 22.3211 161.777V166.801H20.9771V162.177C20.9771 161.771 20.9345 161.398 20.8491 161.057C20.7745 160.705 20.6145 160.422 20.3691 160.209C20.1345 159.995 19.7718 159.889 19.2811 159.889C18.7051 159.889 18.2411 160.113 17.8891 160.561C17.5478 160.998 17.3771 161.643 17.3771 162.497V166.801H16.0331V162.177C16.0331 161.771 15.9905 161.398 15.9051 161.057C15.8305 160.705 15.6705 160.422 15.4251 160.209C15.1905 159.995 14.8278 159.889 14.3371 159.889C13.7611 159.889 13.2971 160.113 12.9451 160.561C12.5931 160.998 12.4171 161.643 12.4171 162.497V166.801H11.0731ZM26.7503 166.993C26.2489 166.993 25.7903 166.902 25.3743 166.721C24.9583 166.539 24.6276 166.278 24.3823 165.937C24.1369 165.595 24.0143 165.185 24.0143 164.705C24.0143 164.075 24.2329 163.579 24.6703 163.217C25.1183 162.854 25.7423 162.577 26.5423 162.385C27.3529 162.182 28.2969 162.022 29.3743 161.905C29.3956 161.233 29.2623 160.715 28.9743 160.353C28.6863 159.99 28.2223 159.809 27.5823 159.809C27.1023 159.809 26.7076 159.921 26.3983 160.145C26.0996 160.358 25.9076 160.657 25.8223 161.041L24.5263 160.657C24.7396 160.049 25.1183 159.579 25.6623 159.249C26.2169 158.907 26.8516 158.737 27.5663 158.737C28.6649 158.737 29.4649 158.998 29.9663 159.521C30.4783 160.033 30.7343 160.843 30.7343 161.953V163.809C30.7343 164.47 30.7609 165.041 30.8143 165.521C30.8676 166.001 30.9316 166.427 31.0063 166.801H29.7743L29.4543 165.713C29.2196 166.107 28.8836 166.422 28.4463 166.657C28.0089 166.881 27.4436 166.993 26.7503 166.993ZM27.0383 165.921C27.4543 165.921 27.8489 165.846 28.2223 165.697C28.5956 165.547 28.8996 165.297 29.1343 164.945C29.3689 164.582 29.4863 164.091 29.4863 163.473V162.977C28.6756 163.062 27.9716 163.169 27.3743 163.297C26.7769 163.414 26.3129 163.585 25.9823 163.809C25.6623 164.022 25.5023 164.31 25.5023 164.673C25.5023 165.046 25.6356 165.35 25.9023 165.585C26.1796 165.809 26.5583 165.921 27.0383 165.921ZM36.2121 169.873C35.7855 169.873 35.3588 169.809 34.9321 169.681C34.5161 169.563 34.1428 169.366 33.8121 169.089C33.4921 168.811 33.2628 168.454 33.1241 168.017L34.4681 167.649C34.6175 168.065 34.8628 168.342 35.2041 168.481C35.5455 168.619 35.8815 168.689 36.2121 168.689C37.0335 168.689 37.5881 168.491 37.8761 168.097C38.1748 167.702 38.3241 167.121 38.3241 166.353V165.297C38.0788 165.713 37.7535 166.043 37.3481 166.289C36.9428 166.534 36.4255 166.657 35.7961 166.657C35.2095 166.657 34.6601 166.507 34.1481 166.209C33.6361 165.899 33.2201 165.451 32.9001 164.865C32.5908 164.267 32.4361 163.547 32.4361 162.705C32.4361 161.851 32.5908 161.131 32.9001 160.545C33.2201 159.958 33.6361 159.51 34.1481 159.201C34.6601 158.891 35.2095 158.737 35.7961 158.737C36.4255 158.737 36.9428 158.865 37.3481 159.121C37.7535 159.366 38.0788 159.697 38.3241 160.113L38.6921 158.865H39.6681V166.049C39.6681 167.307 39.4121 168.257 38.9001 168.897C38.3988 169.547 37.5028 169.873 36.2121 169.873ZM36.1321 165.537C36.5375 165.537 36.9055 165.441 37.2361 165.249C37.5775 165.057 37.8495 164.753 38.0521 164.337C38.2655 163.921 38.3721 163.377 38.3721 162.705C38.3721 162.033 38.2655 161.489 38.0521 161.073C37.8495 160.657 37.5775 160.358 37.2361 160.177C36.9055 159.985 36.5375 159.889 36.1321 159.889C35.4815 159.889 34.9428 160.134 34.5161 160.625C34.1001 161.105 33.8921 161.798 33.8921 162.705C33.8921 163.611 34.1001 164.31 34.5161 164.801C34.9428 165.291 35.4815 165.537 36.1321 165.537ZM45.2773 166.993C44.4453 166.993 43.7413 166.811 43.1653 166.449C42.5893 166.075 42.1466 165.579 41.8372 164.961C41.5386 164.331 41.3893 163.627 41.3893 162.849C41.3893 162.006 41.5599 161.281 41.9013 160.673C42.2426 160.054 42.7013 159.579 43.2773 159.249C43.8639 158.907 44.5199 158.737 45.2453 158.737C45.8746 158.737 46.4293 158.865 46.9093 159.121C47.3893 159.366 47.7839 159.702 48.0933 160.129C48.4133 160.545 48.6426 161.019 48.7812 161.553C48.9306 162.086 48.9839 162.635 48.9413 163.201H42.8293C42.8506 163.862 42.9946 164.385 43.2613 164.769C43.5386 165.153 43.8639 165.425 44.2373 165.585C44.6106 165.734 44.9573 165.809 45.2773 165.809C45.7253 165.809 46.0986 165.739 46.3973 165.601C46.7066 165.451 46.9519 165.259 47.1333 165.025L48.4293 165.409C48.1413 165.867 47.7306 166.246 47.1973 166.545C46.6639 166.843 46.0239 166.993 45.2773 166.993ZM42.8453 162.129H47.5173C47.5173 161.755 47.4213 161.398 47.2293 161.057C47.0479 160.715 46.7866 160.438 46.4453 160.225C46.1146 160.001 45.7146 159.889 45.2453 159.889C44.8506 159.889 44.4773 159.963 44.1253 160.113C43.7733 160.262 43.4799 160.502 43.2453 160.833C43.0213 161.163 42.8879 161.595 42.8453 162.129ZM64.9146 167.505L63.0426 165.761C62.6266 166.155 62.136 166.459 61.5706 166.673C61.0053 166.886 60.3813 166.993 59.6986 166.993C58.6746 166.993 57.7893 166.758 57.0426 166.289C56.296 165.809 55.7146 165.153 55.2986 164.321C54.8933 163.478 54.6906 162.518 54.6906 161.441C54.6906 160.363 54.8933 159.414 55.2986 158.593C55.7146 157.761 56.296 157.11 57.0426 156.641C57.7893 156.161 58.6746 155.921 59.6986 155.921C60.7333 155.921 61.624 156.161 62.3706 156.641C63.1173 157.11 63.6933 157.761 64.0986 158.593C64.5146 159.414 64.7226 160.363 64.7226 161.441C64.7226 162.038 64.6586 162.603 64.5306 163.137C64.4026 163.659 64.216 164.139 63.9706 164.577L65.9386 166.417L64.9146 167.505ZM59.6986 165.729C60.6373 165.729 61.4106 165.414 62.0186 164.785L59.1546 162.097L60.1786 161.009L62.8346 163.505C62.952 163.217 63.0373 162.902 63.0906 162.561C63.1546 162.209 63.1866 161.835 63.1866 161.441C63.1866 160.523 63.032 159.75 62.7226 159.121C62.4133 158.481 61.992 158.001 61.4586 157.681C60.936 157.35 60.3493 157.185 59.6986 157.185C59.0586 157.185 58.472 157.35 57.9386 157.681C57.416 158.001 57 158.481 56.6906 159.121C56.3813 159.75 56.2266 160.523 56.2266 161.441C56.2266 162.369 56.3813 163.153 56.6906 163.793C57 164.422 57.416 164.902 57.9386 165.233C58.472 165.563 59.0586 165.729 59.6986 165.729ZM69.5695 166.993C68.9508 166.993 68.4548 166.865 68.0815 166.609C67.7082 166.342 67.4362 165.979 67.2655 165.521C67.1055 165.051 67.0255 164.518 67.0255 163.921V158.849H68.3695V163.601C68.3695 164.187 68.4388 164.641 68.5775 164.961C68.7162 165.281 68.9082 165.505 69.1535 165.633C69.4095 165.75 69.7028 165.809 70.0335 165.809C70.6628 165.809 71.1535 165.59 71.5055 165.153C71.8682 164.705 72.0495 164.059 72.0495 163.217V158.849H73.3935V166.801H72.3855L72.0495 165.649C71.8255 166.033 71.5215 166.353 71.1375 166.609C70.7535 166.865 70.2308 166.993 69.5695 166.993ZM79.0116 166.993C78.1796 166.993 77.4756 166.811 76.8996 166.449C76.3236 166.075 75.881 165.579 75.5716 164.961C75.273 164.331 75.1236 163.627 75.1236 162.849C75.1236 162.006 75.2943 161.281 75.6356 160.673C75.977 160.054 76.4356 159.579 77.0116 159.249C77.5983 158.907 78.2543 158.737 78.9796 158.737C79.609 158.737 80.1636 158.865 80.6436 159.121C81.1236 159.366 81.5183 159.702 81.8276 160.129C82.1476 160.545 82.377 161.019 82.5156 161.553C82.665 162.086 82.7183 162.635 82.6756 163.201H76.5636C76.585 163.862 76.729 164.385 76.9956 164.769C77.273 165.153 77.5983 165.425 77.9716 165.585C78.345 165.734 78.6916 165.809 79.0116 165.809C79.4596 165.809 79.833 165.739 80.1316 165.601C80.441 165.451 80.6863 165.259 80.8676 165.025L82.1636 165.409C81.8756 165.867 81.465 166.246 80.9316 166.545C80.3983 166.843 79.7583 166.993 79.0116 166.993ZM76.5796 162.129H81.2516C81.2516 161.755 81.1556 161.398 80.9636 161.057C80.7823 160.715 80.521 160.438 80.1796 160.225C79.849 160.001 79.449 159.889 78.9796 159.889C78.585 159.889 78.2116 159.963 77.8596 160.113C77.5076 160.262 77.2143 160.502 76.9796 160.833C76.7556 161.163 76.6223 161.595 76.5796 162.129ZM84.2606 166.801V158.865H85.2366L85.6686 160.337C85.946 159.857 86.3193 159.473 86.7886 159.185C87.2686 158.886 87.8393 158.737 88.5006 158.737V160.129C88.426 160.129 88.346 160.129 88.2606 160.129C88.186 160.129 88.1113 160.134 88.0366 160.145C87.13 160.219 86.4953 160.534 86.1326 161.089C85.7806 161.643 85.6046 162.411 85.6046 163.393V166.801H84.2606ZM89.592 169.377V168.193H90.136C90.52 168.193 90.8133 168.161 91.016 168.097C91.2187 168.043 91.3787 167.915 91.496 167.713C91.624 167.521 91.7467 167.222 91.864 166.817L89 158.881H90.488L92.44 164.993L94.392 158.881H95.864L93.048 167.153C92.856 167.718 92.6587 168.161 92.456 168.481C92.264 168.811 92.0027 169.041 91.672 169.169C91.3413 169.307 90.8773 169.377 90.28 169.377H89.592Z" fill="#D9D9D9" style="fill:#D9D9D9;fill:color(display-p3 0.8510 0.8510 0.8510);fill-opacity:1;"/>
</svg>
