<svg width="155" height="166" viewBox="0 0 155 166" fill="none" xmlns="http://www.w3.org/2000/svg">
  <path d="M144.674 0H10C4.47715 0 0 4.47716 0 10V139.364C0 142.015 1.05291 144.558 2.92723 146.433L19.0995 162.613C20.975 164.49 23.5192 165.544 26.1722 165.544H152.674C153.778 165.544 154.674 164.648 154.674 163.544L154.674 10C154.674 4.47715 150.196 0 144.674 0Z" fill="#5E6060"/>
  <path d="M1.85938 10.9375C1.85938 5.96693 5.88881 1.9375 10.8594 1.9375H143.345C148.316 1.9375 152.345 5.96694 152.345 10.9375V137.994C152.345 142.964 148.316 146.994 143.345 146.994H10.8594C5.88882 146.994 1.85938 142.964 1.85938 137.994V10.9375Z" fill="#1B1B1B"/>
</svg>
