<svg width="37" height="37" viewBox="0 0 37 37" fill="none" xmlns="http://www.w3.org/2000/svg">
  <path d="M7.70833 32.375C6.86042 32.375 6.13455 32.0731 5.53073 31.4693C4.92691 30.8655 4.625 30.1396 4.625 29.2917V7.70833C4.625 6.86042 4.92691 6.13455 5.53073 5.53073C6.13455 4.92691 6.86042 4.625 7.70833 4.625H20.0417V7.70833H7.70833V29.2917H29.2917V16.9583H32.375V29.2917C32.375 30.1396 32.0731 30.8655 31.4693 31.4693C30.8655 32.0731 30.1396 32.375 29.2917 32.375H7.70833ZM9.25 26.2083H27.75L21.9688 18.5L17.3438 24.6667L13.875 20.0417L9.25 26.2083ZM26.2083 13.875V10.7917H23.125V7.70833H26.2083V4.625H29.2917V7.70833H32.375V10.7917H29.2917V13.875H26.2083Z" fill="#D9D9D9"/>
</svg>
