<svg xmlns="http://www.w3.org/2000/svg" width="18" height="20" viewBox="0 0 18 20" fill="none">
  <mask id="path-1-inside-1" fill="white">
    <path d="M15.8919 1.21875L9.59918 11.7812V17.0625L8.42527 16.25V11.7812L2.1644 1.21875H15.8919ZM18 0H0L7.04348 12.2639V17.0625L10.9565 19.5V12.2639L18 0Z"/>
  </mask>
  <path d="M15.8919 1.21875L9.59918 11.7812V17.0625L8.42527 16.25V11.7812L2.1644 1.21875H15.8919ZM18 0H0L7.04348 12.2639V17.0625L10.9565 19.5V12.2639L18 0Z" fill="#D9D9D9"/>
  <path d="M15.8919 1.21875L18.4692 2.7542L21.1713 -1.78125L15.8919 -1.78125V1.21875ZM9.59918 11.7812L7.0219 10.2458L6.59918 10.9553V11.7812H9.59918ZM9.59918 17.0625L7.89185 19.5293L12.5992 22.7874V17.0625H9.59918ZM8.42527 16.25H5.42527V17.8221L6.71794 18.7168L8.42527 16.25ZM8.42527 11.7812H11.4253V10.9589L11.006 10.2516L8.42527 11.7812ZM2.1644 1.21875V-1.78125H-3.10126L-0.4163 2.74845L2.1644 1.21875ZM18 0L20.6015 1.4941L23.1826 -3H18V0ZM0 0V-3H-5.18256L-2.60147 1.4941L0 0ZM7.04348 12.2639H10.0435V11.4637L9.64495 10.7698L7.04348 12.2639ZM7.04348 17.0625H4.04348V18.7282L5.4573 19.6089L7.04348 17.0625ZM10.9565 19.5L9.37034 22.0464L13.9565 24.9032V19.5H10.9565ZM10.9565 12.2639L8.35505 10.7698L7.95652 11.4637V12.2639H10.9565ZM15.8919 1.21875L13.3146 -0.316698L7.0219 10.2458L9.59918 11.7812L12.1765 13.3167L18.4692 2.7542L15.8919 1.21875ZM9.59918 11.7812H6.59918V17.0625H9.59918H12.5992V11.7812H9.59918ZM9.59918 17.0625L11.3065 14.5957L10.1326 13.7832L8.42527 16.25L6.71794 18.7168L7.89185 19.5293L9.59918 17.0625ZM8.42527 16.25H11.4253V11.7812H8.42527H5.42527V16.25H8.42527ZM8.42527 11.7812L11.006 10.2516L4.7451 -0.310948L2.1644 1.21875L-0.4163 2.74845L5.84457 13.3109L8.42527 11.7812ZM2.1644 1.21875V4.21875H15.8919V1.21875V-1.78125H2.1644V1.21875ZM18 0V-3H0V0V3H18V0ZM0 0L-2.60147 1.4941L4.442 13.758L7.04348 12.2639L9.64495 10.7698L2.60147 -1.4941L0 0ZM7.04348 12.2639H4.04348V17.0625H7.04348H10.0435V12.2639H7.04348ZM7.04348 17.0625L5.4573 19.6089L9.37034 22.0464L10.9565 19.5L12.5427 16.9536L8.62966 14.5161L7.04348 17.0625ZM10.9565 19.5H13.9565V12.2639H10.9565H7.95652V19.5H10.9565ZM10.9565 12.2639L13.558 13.758L20.6015 1.4941L18 0L15.3985 -1.4941L8.35505 10.7698L10.9565 12.2639Z" fill="#D9D9D9" mask="url(#path-1-inside-1)"/>
</svg>
