<svg width="145" height="128" viewBox="0 0 145 128" fill="none" xmlns="http://www.w3.org/2000/svg">
<path d="M136.789 13.0898H8.63924C4.33391 13.0898 0.84375 16.58 0.84375 20.8853V38.9693C0.84375 41.0362 1.66454 43.0184 3.12567 44.4802L10.9904 52.3488C12.4525 53.8115 14.4358 54.6333 16.504 54.6333H143.026C143.887 54.6333 144.585 53.9353 144.585 53.0742V20.8853C144.585 16.58 141.095 13.0898 136.789 13.0898Z" fill="#5E6060" style="fill:#5E6060;fill:color(display-p3 0.3686 0.3765 0.3765);fill-opacity:1;"/>
<path d="M6.88915 54.6766H2.14504C1.28397 54.6766 0.585938 53.9786 0.585938 53.1175V48.3734C0.585938 46.9844 2.26531 46.2887 3.24748 47.2709L7.9916 52.015C8.97378 52.9972 8.27816 54.6766 6.88915 54.6766Z" fill="#467FC6" style="fill:#467FC6;fill:color(display-p3 0.2734 0.4997 0.7749);fill-opacity:1;"/>
<rect x="1.89844" y="13.9648" width="141.816" height="30.2016" rx="7.01594" fill="#1B1B1B" style="fill:#1B1B1B;fill:color(display-p3 0.1059 0.1059 0.1059);fill-opacity:1;"/>
<path d="M38.2979 125.125V115.733H34.7459V114.437H43.3539V115.733H39.8019V125.125H38.2979ZM46.6288 125.317C45.7968 125.317 45.0928 125.136 44.5168 124.773C43.9408 124.4 43.4981 123.904 43.1888 123.285C42.8901 122.656 42.7408 121.952 42.7408 121.173C42.7408 120.33 42.9115 119.605 43.2528 118.997C43.5941 118.378 44.0528 117.904 44.6288 117.573C45.2155 117.232 45.8715 117.061 46.5968 117.061C47.2261 117.061 47.7808 117.189 48.2608 117.445C48.7408 117.69 49.1355 118.026 49.4448 118.453C49.7648 118.869 49.9941 119.344 50.1328 119.877C50.2821 120.41 50.3355 120.96 50.2928 121.525H44.1808C44.2021 122.186 44.3461 122.709 44.6128 123.093C44.8901 123.477 45.2155 123.749 45.5888 123.909C45.9621 124.058 46.3088 124.133 46.6288 124.133C47.0768 124.133 47.4501 124.064 47.7488 123.925C48.0581 123.776 48.3035 123.584 48.4848 123.349L49.7808 123.733C49.4928 124.192 49.0821 124.57 48.5488 124.869C48.0155 125.168 47.3755 125.317 46.6288 125.317ZM44.1968 120.453H48.8688C48.8688 120.08 48.7728 119.722 48.5808 119.381C48.3995 119.04 48.1381 118.762 47.7968 118.549C47.4661 118.325 47.0661 118.213 46.5968 118.213C46.2021 118.213 45.8288 118.288 45.4768 118.437C45.1248 118.586 44.8315 118.826 44.5968 119.157C44.3728 119.488 44.2395 119.92 44.1968 120.453ZM50.7578 125.125L53.6538 121.045L50.9018 117.189H52.4858L54.4378 119.941L56.4058 117.189H57.9898L55.2378 121.045L58.1338 125.125H56.5498L54.4378 122.165L52.3418 125.125H50.7578ZM61.6688 125.125C61.1675 125.125 60.7781 125.077 60.5008 124.981C60.2341 124.874 60.0475 124.677 59.9408 124.389C59.8448 124.101 59.7968 123.685 59.7968 123.141V118.261H58.4528V117.189H59.7968V115.189H61.1408V117.189H62.6768V118.261H61.1408V122.917C61.1408 123.322 61.1781 123.594 61.2528 123.733C61.3381 123.872 61.5728 123.941 61.9568 123.941H62.6768V125.125H61.6688ZM78.8287 125.829L76.9567 124.085C76.5407 124.48 76.05 124.784 75.4847 124.997C74.9194 125.21 74.2954 125.317 73.6127 125.317C72.5887 125.317 71.7034 125.082 70.9567 124.613C70.21 124.133 69.6287 123.477 69.2127 122.645C68.8074 121.802 68.6047 120.842 68.6047 119.765C68.6047 118.688 68.8074 117.738 69.2127 116.917C69.6287 116.085 70.21 115.434 70.9567 114.965C71.7034 114.485 72.5887 114.245 73.6127 114.245C74.6474 114.245 75.538 114.485 76.2847 114.965C77.0314 115.434 77.6074 116.085 78.0127 116.917C78.4287 117.738 78.6367 118.688 78.6367 119.765C78.6367 120.362 78.5727 120.928 78.4447 121.461C78.3167 121.984 78.13 122.464 77.8847 122.901L79.8527 124.741L78.8287 125.829ZM73.6127 124.053C74.5514 124.053 75.3247 123.738 75.9327 123.109L73.0687 120.421L74.0927 119.333L76.7487 121.829C76.866 121.541 76.9514 121.226 77.0047 120.885C77.0687 120.533 77.1007 120.16 77.1007 119.765C77.1007 118.848 76.946 118.074 76.6367 117.445C76.3274 116.805 75.906 116.325 75.3727 116.005C74.85 115.674 74.2634 115.509 73.6127 115.509C72.9727 115.509 72.386 115.674 71.8527 116.005C71.33 116.325 70.914 116.805 70.6047 117.445C70.2954 118.074 70.1407 118.848 70.1407 119.765C70.1407 120.693 70.2954 121.477 70.6047 122.117C70.914 122.746 71.33 123.226 71.8527 123.557C72.386 123.888 72.9727 124.053 73.6127 124.053ZM83.4836 125.317C82.8649 125.317 82.3689 125.189 81.9956 124.933C81.6222 124.666 81.3502 124.304 81.1796 123.845C81.0196 123.376 80.9396 122.842 80.9396 122.245V117.173H82.2836V121.925C82.2836 122.512 82.3529 122.965 82.4916 123.285C82.6302 123.605 82.8222 123.829 83.0676 123.957C83.3236 124.074 83.6169 124.133 83.9476 124.133C84.5769 124.133 85.0676 123.914 85.4196 123.477C85.7822 123.029 85.9636 122.384 85.9636 121.541V117.173H87.3076V125.125H86.2996L85.9636 123.973C85.7396 124.357 85.4356 124.677 85.0516 124.933C84.6676 125.189 84.1449 125.317 83.4836 125.317ZM92.9257 125.317C92.0937 125.317 91.3897 125.136 90.8137 124.773C90.2377 124.4 89.795 123.904 89.4857 123.285C89.187 122.656 89.0377 121.952 89.0377 121.173C89.0377 120.33 89.2084 119.605 89.5497 118.997C89.891 118.378 90.3497 117.904 90.9257 117.573C91.5124 117.232 92.1684 117.061 92.8937 117.061C93.523 117.061 94.0777 117.189 94.5577 117.445C95.0377 117.69 95.4324 118.026 95.7417 118.453C96.0617 118.869 96.291 119.344 96.4297 119.877C96.579 120.41 96.6324 120.96 96.5897 121.525H90.4777C90.499 122.186 90.643 122.709 90.9097 123.093C91.187 123.477 91.5124 123.749 91.8857 123.909C92.259 124.058 92.6057 124.133 92.9257 124.133C93.3737 124.133 93.747 124.064 94.0457 123.925C94.355 123.776 94.6004 123.584 94.7817 123.349L96.0777 123.733C95.7897 124.192 95.379 124.57 94.8457 124.869C94.3124 125.168 93.6724 125.317 92.9257 125.317ZM90.4937 120.453H95.1657C95.1657 120.08 95.0697 119.722 94.8777 119.381C94.6964 119.04 94.435 118.762 94.0937 118.549C93.763 118.325 93.363 118.213 92.8937 118.213C92.499 118.213 92.1257 118.288 91.7737 118.437C91.4217 118.586 91.1284 118.826 90.8937 119.157C90.6697 119.488 90.5364 119.92 90.4937 120.453ZM98.1747 125.125V117.189H99.1507L99.5827 118.661C99.86 118.181 100.233 117.797 100.703 117.509C101.183 117.21 101.753 117.061 102.415 117.061V118.453C102.34 118.453 102.26 118.453 102.175 118.453C102.1 118.453 102.025 118.458 101.951 118.469C101.044 118.544 100.409 118.858 100.047 119.413C99.6947 119.968 99.5187 120.736 99.5187 121.717V125.125H98.1747ZM103.506 127.701V126.517H104.05C104.434 126.517 104.727 126.485 104.93 126.421C105.133 126.368 105.293 126.24 105.41 126.037C105.538 125.845 105.661 125.546 105.778 125.141L102.914 117.205H104.402L106.354 123.317L108.306 117.205H109.778L106.962 125.477C106.77 126.042 106.573 126.485 106.37 126.805C106.178 127.136 105.917 127.365 105.586 127.493C105.255 127.632 104.791 127.701 104.194 127.701H103.506Z" fill="#D9D9D9" style="fill:#D9D9D9;fill:color(display-p3 0.8510 0.8510 0.8510);fill-opacity:1;"/>
<path d="M6.18847 6.06676L8.46463 8.34292M7.09442 3.84018C7.09442 5.63745 5.63745 7.09442 3.84018 7.09442C2.04291 7.09442 0.585938 5.63745 0.585938 3.84018C0.585938 2.04291 2.04291 0.585938 3.84018 0.585938C5.63745 0.585938 7.09442 2.04291 7.09442 3.84018Z" stroke="#D9D9D9" style="stroke:#D9D9D9;stroke:color(display-p3 0.8510 0.8510 0.8510);stroke-opacity:1;" stroke-width="1.16932" stroke-linecap="round"/>
</svg>
