<svg width="329" height="95" viewBox="0 0 329 95" fill="none" xmlns="http://www.w3.org/2000/svg">
<path d="M318.398 0H10C4.47715 0 0 4.47715 0 10V62.3593C0 65.0106 1.05291 67.5534 2.92723 69.4286L25.4692 91.9815C27.3447 93.8579 29.889 94.9121 32.542 94.9121H326.398C327.502 94.9121 328.398 94.0167 328.398 92.9121V10C328.398 4.47715 323.92 0 318.398 0Z" fill="#5E6060" style="fill:#5E6060;fill:color(display-p3 0.3686 0.3765 0.3765);fill-opacity:1;"/>
<path d="M2.39844 11C2.39844 6.02944 6.42788 2 11.3984 2H317.398C322.369 2 326.398 6.02944 326.398 11V62C326.398 66.9706 322.369 71 317.398 71H11.3984C6.42788 71 2.39844 66.9706 2.39844 62V11Z" fill="#1B1B1B" style="fill:#1B1B1B;fill:color(display-p3 0.1059 0.1059 0.1059);fill-opacity:1;"/>
</svg>
