<svg width="329" height="95" viewBox="0 0 329 95" fill="none" xmlns="http://www.w3.org/2000/svg">
<path d="M2.39844 11C2.39844 6.02944 6.42788 2 11.3984 2H317.398C322.369 2 326.398 6.02944 326.398 11V62C326.398 66.9706 322.369 71 317.398 71H11.3984C6.42788 71 2.39844 66.9706 2.39844 62V11Z" fill="#1B1B1B" style="fill:#1B1B1B;fill:color(display-p3 0.1059 0.1059 0.1059);fill-opacity:1;"/>
<path fill-rule="evenodd" clip-rule="evenodd" d="M10 0H318.398C323.92 0 328.398 4.47715 328.398 10V92.9121C328.398 94.0167 327.502 94.9121 326.398 94.9121H32.542H0V62.3593V10C0 4.47715 4.47715 0 10 0ZM2.39844 11C2.39844 6.02944 6.42788 2 11.3984 2H317.398C322.369 2 326.398 6.02944 326.398 11V62C326.398 66.9706 322.369 71 317.398 71H11.3984C6.42788 71 2.39844 66.9706 2.39844 62V11Z" fill="#5E6060" style="fill:#5E6060;fill:color(display-p3 0.3686 0.3765 0.3765);fill-opacity:1;"/>
</svg>
