<svg width="100" height="50" viewBox="0 0 100 50" fill="none" xmlns="http://www.w3.org/2000/svg">
<path d="M4.485 46.156C3.22833 46.156 2.33133 45.844 1.794 45.22C1.25667 44.5873 0.988 43.6383 0.988 42.373V37.316H2.21V42.464C2.21 43.322 2.379 43.9763 2.717 44.427C3.06367 44.8777 3.653 45.103 4.485 45.103C5.317 45.103 5.902 44.8777 6.24 44.427C6.58667 43.9763 6.76 43.322 6.76 42.464V37.316H7.982V42.373C7.982 43.6383 7.71333 44.5873 7.176 45.22C6.64733 45.844 5.75033 46.156 4.485 46.156ZM9.88559 48.093V39.552H10.6786L10.9776 40.566C11.1769 40.228 11.4499 39.9593 11.7966 39.76C12.1433 39.552 12.5679 39.448 13.0706 39.448C13.5646 39.448 14.0196 39.5823 14.4356 39.851C14.8603 40.111 15.1983 40.4923 15.4496 40.995C15.7096 41.489 15.8396 42.0913 15.8396 42.802C15.8396 43.504 15.7096 44.1063 15.4496 44.609C15.1983 45.1117 14.8603 45.4973 14.4356 45.766C14.0196 46.026 13.5646 46.156 13.0706 46.156C12.5679 46.156 12.1433 46.0563 11.7966 45.857C11.4499 45.649 11.1769 45.3717 10.9776 45.025V48.093H9.88559ZM12.7846 45.22C13.3393 45.22 13.7813 45.0077 14.1106 44.583C14.4486 44.1583 14.6176 43.5647 14.6176 42.802C14.6176 42.0307 14.4486 41.437 14.1106 41.021C13.7813 40.5963 13.3393 40.384 12.7846 40.384C12.2299 40.384 11.7836 40.5963 11.4456 41.021C11.1163 41.437 10.9516 42.0307 10.9516 42.802C10.9516 43.5647 11.1163 44.1583 11.4456 44.583C11.7836 45.0077 12.2299 45.22 12.7846 45.22ZM18.7699 46C18.3625 46 18.0462 45.961 17.8209 45.883C17.6042 45.7963 17.4525 45.636 17.3659 45.402C17.2879 45.168 17.2489 44.83 17.2489 44.388V37.329H18.3409V44.206C18.3409 44.5353 18.3755 44.7563 18.4449 44.869C18.5142 44.9817 18.7005 45.038 19.0039 45.038H19.2509V46H18.7699ZM23.0372 46.156C22.6646 46.156 22.2962 46.091 21.9322 45.961C21.5682 45.831 21.2346 45.6317 20.9312 45.363C20.6366 45.0857 20.3982 44.7347 20.2162 44.31C20.0342 43.8853 19.9432 43.3827 19.9432 42.802C19.9432 42.2213 20.0342 41.7187 20.2162 41.294C20.3982 40.8693 20.6366 40.5227 20.9312 40.254C21.2346 39.9767 21.5682 39.773 21.9322 39.643C22.2962 39.513 22.6646 39.448 23.0372 39.448C23.4099 39.448 23.7782 39.513 24.1422 39.643C24.5149 39.773 24.8486 39.9767 25.1432 40.254C25.4466 40.5227 25.6849 40.8693 25.8582 41.294C26.0402 41.7187 26.1312 42.2213 26.1312 42.802C26.1312 43.3827 26.0402 43.8853 25.8582 44.31C25.6849 44.7347 25.4466 45.0857 25.1432 45.363C24.8486 45.6317 24.5149 45.831 24.1422 45.961C23.7782 46.091 23.4099 46.156 23.0372 46.156ZM23.0372 45.194C23.3492 45.194 23.6526 45.1117 23.9472 44.947C24.2419 44.7737 24.4846 44.5137 24.6752 44.167C24.8659 43.8117 24.9612 43.3567 24.9612 42.802C24.9612 42.2473 24.8659 41.7967 24.6752 41.45C24.4846 41.0947 24.2419 40.8347 23.9472 40.67C23.6526 40.4967 23.3492 40.41 23.0372 40.41C22.7339 40.41 22.4306 40.4967 22.1272 40.67C21.8326 40.8347 21.5899 41.0947 21.3992 41.45C21.2086 41.7967 21.1132 42.2473 21.1132 42.802C21.1132 43.3567 21.2086 43.8117 21.3992 44.167C21.5899 44.5137 21.8326 44.7737 22.1272 44.947C22.4306 45.1117 22.7339 45.194 23.0372 45.194ZM29.3391 46.156C28.9317 46.156 28.5591 46.0823 28.2211 45.935C27.8831 45.7877 27.6144 45.5753 27.4151 45.298C27.2157 45.0207 27.1161 44.687 27.1161 44.297C27.1161 43.7857 27.2937 43.3827 27.6491 43.088C28.0131 42.7933 28.5201 42.568 29.1701 42.412C29.8287 42.2473 30.5957 42.1173 31.4711 42.022C31.4884 41.476 31.3801 41.0557 31.1461 40.761C30.9121 40.4663 30.5351 40.319 30.0151 40.319C29.6251 40.319 29.3044 40.41 29.0531 40.592C28.8104 40.7653 28.6544 41.008 28.5851 41.32L27.5321 41.008C27.7054 40.514 28.0131 40.1327 28.4551 39.864C28.9057 39.5867 29.4214 39.448 30.0021 39.448C30.8947 39.448 31.5447 39.6603 31.9521 40.085C32.3681 40.501 32.5761 41.1597 32.5761 42.061V43.569C32.5761 44.1063 32.5977 44.57 32.6411 44.96C32.6844 45.35 32.7364 45.6967 32.7971 46H31.7961L31.5361 45.116C31.3454 45.4367 31.0724 45.6923 30.7171 45.883C30.3617 46.065 29.9024 46.156 29.3391 46.156ZM29.5731 45.285C29.9111 45.285 30.2317 45.2243 30.5351 45.103C30.8384 44.9817 31.0854 44.778 31.2761 44.492C31.4667 44.1973 31.5621 43.7987 31.5621 43.296V42.893C30.9034 42.9623 30.3314 43.049 29.8461 43.153C29.3607 43.2483 28.9837 43.387 28.7151 43.569C28.4551 43.7423 28.3251 43.9763 28.3251 44.271C28.3251 44.5743 28.4334 44.8213 28.6501 45.012C28.8754 45.194 29.1831 45.285 29.5731 45.285ZM36.7278 46.156C36.2425 46.156 35.7875 46.026 35.3628 45.766C34.9382 45.4973 34.5958 45.116 34.3358 44.622C34.0845 44.1193 33.9588 43.5127 33.9588 42.802C33.9588 42.0913 34.0845 41.489 34.3358 40.995C34.5958 40.4923 34.9382 40.111 35.3628 39.851C35.7875 39.5823 36.2425 39.448 36.7278 39.448C37.2392 39.448 37.6682 39.552 38.0148 39.76C38.3615 39.9593 38.6302 40.228 38.8208 40.566V37.316H39.9128V43.569C39.9128 43.7857 39.9215 44.1063 39.9388 44.531C39.9562 44.947 40.0212 45.4367 40.1338 46H39.1068L38.8208 45.025C38.6302 45.3717 38.3615 45.649 38.0148 45.857C37.6682 46.0563 37.2392 46.156 36.7278 46.156ZM37.0138 45.22C37.5685 45.22 38.0105 45.0077 38.3398 44.583C38.6778 44.1583 38.8468 43.5647 38.8468 42.802C38.8468 42.0307 38.6778 41.437 38.3398 41.021C38.0105 40.5963 37.5685 40.384 37.0138 40.384C36.4592 40.384 36.0128 40.5963 35.6748 41.021C35.3455 41.437 35.1808 42.0307 35.1808 42.802C35.1808 43.5647 35.3455 44.1583 35.6748 44.583C36.0128 45.0077 36.4592 45.22 37.0138 45.22ZM47.9433 46.156C47.328 46.156 46.795 46.013 46.3443 45.727C45.8936 45.4323 45.547 45.0337 45.3043 44.531C45.0616 44.0283 44.9403 43.452 44.9403 42.802C44.9403 42.1607 45.066 41.5887 45.3173 41.086C45.5773 40.5747 45.9413 40.176 46.4093 39.89C46.8773 39.5953 47.4276 39.448 48.0603 39.448C48.641 39.448 49.1393 39.591 49.5553 39.877C49.9713 40.163 50.2833 40.5053 50.4913 40.904L49.4903 41.268C49.3516 41.008 49.148 40.8 48.8793 40.644C48.6106 40.488 48.3116 40.41 47.9823 40.41C47.6616 40.41 47.3583 40.4967 47.0723 40.67C46.7863 40.8347 46.5566 41.0947 46.3833 41.45C46.21 41.7967 46.1233 42.243 46.1233 42.789C46.1233 43.3263 46.21 43.777 46.3833 44.141C46.5653 44.4963 46.795 44.7607 47.0723 44.934C47.3583 45.1073 47.6616 45.194 47.9823 45.194C48.3376 45.194 48.6453 45.116 48.9053 44.96C49.174 44.7953 49.3776 44.5917 49.5163 44.349L50.5173 44.713C50.2746 45.129 49.928 45.4757 49.4773 45.753C49.0266 46.0217 48.5153 46.156 47.9433 46.156ZM53.6633 46.156C53.256 46.156 52.8833 46.0823 52.5453 45.935C52.2073 45.7877 51.9386 45.5753 51.7393 45.298C51.54 45.0207 51.4403 44.687 51.4403 44.297C51.4403 43.7857 51.618 43.3827 51.9733 43.088C52.3373 42.7933 52.8443 42.568 53.4943 42.412C54.153 42.2473 54.92 42.1173 55.7953 42.022C55.8126 41.476 55.7043 41.0557 55.4703 40.761C55.2363 40.4663 54.8593 40.319 54.3393 40.319C53.9493 40.319 53.6286 40.41 53.3773 40.592C53.1346 40.7653 52.9786 41.008 52.9093 41.32L51.8563 41.008C52.0296 40.514 52.3373 40.1327 52.7793 39.864C53.23 39.5867 53.7456 39.448 54.3263 39.448C55.219 39.448 55.869 39.6603 56.2763 40.085C56.6923 40.501 56.9003 41.1597 56.9003 42.061V43.569C56.9003 44.1063 56.922 44.57 56.9653 44.96C57.0086 45.35 57.0606 45.6967 57.1213 46H56.1203L55.8603 45.116C55.6696 45.4367 55.3966 45.6923 55.0413 45.883C54.686 46.065 54.2266 46.156 53.6633 46.156ZM53.8973 45.285C54.2353 45.285 54.556 45.2243 54.8593 45.103C55.1626 44.9817 55.4096 44.778 55.6003 44.492C55.791 44.1973 55.8863 43.7987 55.8863 43.296V42.893C55.2276 42.9623 54.6556 43.049 54.1703 43.153C53.685 43.2483 53.308 43.387 53.0393 43.569C52.7793 43.7423 52.6493 43.9763 52.6493 44.271C52.6493 44.5743 52.7576 44.8213 52.9743 45.012C53.1996 45.194 53.5073 45.285 53.8973 45.285ZM60.8961 46.156C60.5234 46.156 60.1551 46.0997 59.7911 45.987C59.4357 45.8657 59.1151 45.688 58.8291 45.454C58.5517 45.2113 58.3394 44.908 58.1921 44.544L59.2451 44.154C59.3404 44.5353 59.5484 44.8127 59.8691 44.986C60.1984 45.1507 60.5407 45.233 60.8961 45.233C61.1561 45.233 61.3987 45.194 61.6241 45.116C61.8581 45.038 62.0487 44.9253 62.1961 44.778C62.3434 44.6307 62.4171 44.4617 62.4171 44.271C62.4171 43.9157 62.2741 43.6643 61.9881 43.517C61.7107 43.3697 61.3771 43.257 60.9871 43.179L60.0901 42.997C59.7781 42.9277 59.4877 42.8323 59.2191 42.711C58.9504 42.581 58.7337 42.399 58.5691 42.165C58.4044 41.931 58.3221 41.619 58.3221 41.229C58.3221 40.839 58.4434 40.514 58.6861 40.254C58.9287 39.9853 59.2364 39.7817 59.6091 39.643C59.9904 39.5043 60.3891 39.435 60.8051 39.435C61.3164 39.435 61.7974 39.5433 62.2481 39.76C62.7074 39.968 63.0324 40.2973 63.2231 40.748L62.1961 41.125C62.0834 40.865 61.8841 40.6743 61.5981 40.553C61.3207 40.423 61.0304 40.358 60.7271 40.358C60.3977 40.358 60.0987 40.4317 59.8301 40.579C59.5614 40.7263 59.4271 40.9387 59.4271 41.216C59.4271 41.4933 59.5397 41.697 59.7651 41.827C59.9991 41.9483 60.2851 42.0437 60.6231 42.113L61.4681 42.282C61.8147 42.3513 62.1441 42.451 62.4561 42.581C62.7681 42.711 63.0237 42.906 63.2231 43.166C63.4224 43.4173 63.5221 43.7727 63.5221 44.232C63.5221 44.6393 63.3964 44.986 63.1451 45.272C62.8937 45.558 62.5687 45.779 62.1701 45.935C61.7714 46.0823 61.3467 46.156 60.8961 46.156ZM67.5612 46.156C66.8852 46.156 66.3132 46.0087 65.8452 45.714C65.3772 45.4107 65.0175 45.0077 64.7662 44.505C64.5235 43.9937 64.4022 43.4217 64.4022 42.789C64.4022 42.1043 64.5409 41.515 64.8182 41.021C65.0955 40.5183 65.4682 40.1327 65.9362 39.864C66.4129 39.5867 66.9459 39.448 67.5352 39.448C68.0465 39.448 68.4972 39.552 68.8872 39.76C69.2772 39.9593 69.5979 40.2323 69.8492 40.579C70.1092 40.917 70.2955 41.3027 70.4082 41.736C70.5295 42.1693 70.5729 42.6157 70.5382 43.075H65.5722C65.5895 43.6123 65.7065 44.037 65.9232 44.349C66.1485 44.661 66.4129 44.882 66.7162 45.012C67.0195 45.1333 67.3012 45.194 67.5612 45.194C67.9252 45.194 68.2285 45.1377 68.4712 45.025C68.7225 44.9037 68.9219 44.7477 69.0692 44.557L70.1222 44.869C69.8882 45.2417 69.5545 45.5493 69.1212 45.792C68.6879 46.0347 68.1679 46.156 67.5612 46.156ZM65.5852 42.204H69.3812C69.3812 41.9007 69.3032 41.6103 69.1472 41.333C68.9999 41.0557 68.7875 40.8303 68.5102 40.657C68.2415 40.475 67.9165 40.384 67.5352 40.384C67.2145 40.384 66.9112 40.4447 66.6252 40.566C66.3392 40.6873 66.1009 40.8823 65.9102 41.151C65.7282 41.4197 65.6199 41.7707 65.5852 42.204ZM77.8226 46.156C77.3372 46.156 76.8822 46.026 76.4576 45.766C76.0329 45.4973 75.6906 45.116 75.4306 44.622C75.1792 44.1193 75.0536 43.5127 75.0536 42.802C75.0536 42.0913 75.1792 41.489 75.4306 40.995C75.6906 40.4923 76.0329 40.111 76.4576 39.851C76.8822 39.5823 77.3372 39.448 77.8226 39.448C78.3339 39.448 78.7629 39.552 79.1096 39.76C79.4562 39.9593 79.7249 40.228 79.9156 40.566V37.316H81.0076V43.569C81.0076 43.7857 81.0162 44.1063 81.0336 44.531C81.0509 44.947 81.1159 45.4367 81.2286 46H80.2016L79.9156 45.025C79.7249 45.3717 79.4562 45.649 79.1096 45.857C78.7629 46.0563 78.3339 46.156 77.8226 46.156ZM78.1086 45.22C78.6632 45.22 79.1052 45.0077 79.4346 44.583C79.7726 44.1583 79.9416 43.5647 79.9416 42.802C79.9416 42.0307 79.7726 41.437 79.4346 41.021C79.1052 40.5963 78.6632 40.384 78.1086 40.384C77.5539 40.384 77.1076 40.5963 76.7696 41.021C76.4402 41.437 76.2756 42.0307 76.2756 42.802C76.2756 43.5647 76.4402 44.1583 76.7696 44.583C77.1076 45.0077 77.5539 45.22 78.1086 45.22ZM84.6145 46.156C84.2071 46.156 83.8345 46.0823 83.4965 45.935C83.1585 45.7877 82.8898 45.5753 82.6905 45.298C82.4911 45.0207 82.3915 44.687 82.3915 44.297C82.3915 43.7857 82.5691 43.3827 82.9245 43.088C83.2885 42.7933 83.7955 42.568 84.4455 42.412C85.1041 42.2473 85.8711 42.1173 86.7465 42.022C86.7638 41.476 86.6555 41.0557 86.4215 40.761C86.1875 40.4663 85.8105 40.319 85.2905 40.319C84.9005 40.319 84.5798 40.41 84.3285 40.592C84.0858 40.7653 83.9298 41.008 83.8605 41.32L82.8075 41.008C82.9808 40.514 83.2885 40.1327 83.7305 39.864C84.1811 39.5867 84.6968 39.448 85.2775 39.448C86.1701 39.448 86.8201 39.6603 87.2275 40.085C87.6435 40.501 87.8515 41.1597 87.8515 42.061V43.569C87.8515 44.1063 87.8731 44.57 87.9165 44.96C87.9598 45.35 88.0118 45.6967 88.0725 46H87.0715L86.8115 45.116C86.6208 45.4367 86.3478 45.6923 85.9925 45.883C85.6371 46.065 85.1778 46.156 84.6145 46.156ZM84.8485 45.285C85.1865 45.285 85.5071 45.2243 85.8105 45.103C86.1138 44.9817 86.3608 44.778 86.5515 44.492C86.7421 44.1973 86.8375 43.7987 86.8375 43.296V42.893C86.1788 42.9623 85.6068 43.049 85.1215 43.153C84.6361 43.2483 84.2591 43.387 83.9905 43.569C83.7305 43.7423 83.6005 43.9763 83.6005 44.271C83.6005 44.5743 83.7088 44.8213 83.9255 45.012C84.1508 45.194 84.4585 45.285 84.8485 45.285ZM91.6132 46C91.2059 46 90.8896 45.961 90.6642 45.883C90.4476 45.7963 90.2959 45.636 90.2092 45.402C90.1312 45.168 90.0922 44.83 90.0922 44.388V40.423H89.0002V39.552H90.0922V37.927H91.1842V39.552H92.4322V40.423H91.1842V44.206C91.1842 44.5353 91.2146 44.7563 91.2752 44.869C91.3446 44.9817 91.5352 45.038 91.8472 45.038H92.4322V46H91.6132ZM95.6721 46.156C95.2647 46.156 94.8921 46.0823 94.5541 45.935C94.2161 45.7877 93.9474 45.5753 93.7481 45.298C93.5487 45.0207 93.4491 44.687 93.4491 44.297C93.4491 43.7857 93.6267 43.3827 93.9821 43.088C94.3461 42.7933 94.8531 42.568 95.5031 42.412C96.1617 42.2473 96.9287 42.1173 97.8041 42.022C97.8214 41.476 97.7131 41.0557 97.4791 40.761C97.2451 40.4663 96.8681 40.319 96.3481 40.319C95.9581 40.319 95.6374 40.41 95.3861 40.592C95.1434 40.7653 94.9874 41.008 94.9181 41.32L93.8651 41.008C94.0384 40.514 94.3461 40.1327 94.7881 39.864C95.2387 39.5867 95.7544 39.448 96.3351 39.448C97.2277 39.448 97.8777 39.6603 98.2851 40.085C98.7011 40.501 98.9091 41.1597 98.9091 42.061V43.569C98.9091 44.1063 98.9307 44.57 98.9741 44.96C99.0174 45.35 99.0694 45.6967 99.1301 46H98.1291L97.8691 45.116C97.6784 45.4367 97.4054 45.6923 97.0501 45.883C96.6947 46.065 96.2354 46.156 95.6721 46.156ZM95.9061 45.285C96.2441 45.285 96.5647 45.2243 96.8681 45.103C97.1714 44.9817 97.4184 44.778 97.6091 44.492C97.7997 44.1973 97.8951 43.7987 97.8951 43.296V42.893C97.2364 42.9623 96.6644 43.049 96.1791 43.153C95.6937 43.2483 95.3167 43.387 95.0481 43.569C94.7881 43.7423 94.6581 43.9763 94.6581 44.271C94.6581 44.5743 94.7664 44.8213 94.9831 45.012C95.2084 45.194 95.5161 45.285 95.9061 45.285Z" fill="#D9D9D9" style="fill:#D9D9D9;fill:color(display-p3 0.8510 0.8510 0.8510);fill-opacity:1;"/>
<path fill-rule="evenodd" clip-rule="evenodd" d="M39 1.9233e-06L39 20L47 20L47 18L41 18L41 2L59 2L59 18L53 18L53 20L61 20L61 0L39 1.9233e-06ZM51 13L55 13L50 7L45 13L49 13L49 24L51 24L51 13Z" fill="#D9D9D9" style="fill:#D9D9D9;fill:color(display-p3 0.8510 0.8510 0.8510);fill-opacity:1;"/>
</svg>
