<svg width="82" height="14" viewBox="0 0 82 14" fill="none" xmlns="http://www.w3.org/2000/svg">
<path fill-rule="evenodd" clip-rule="evenodd" d="M81.271 0H22.2578V13.3763H81.271V0ZM27.7757 10.3623C27.1798 10.3623 26.6637 10.2239 26.2272 9.94689C25.7908 9.66153 25.4551 9.27545 25.2201 8.78866C24.9851 8.30186 24.8676 7.74373 24.8676 7.11426C24.8676 6.49318 24.9893 5.93924 25.2327 5.45245C25.4845 4.95726 25.837 4.57118 26.2902 4.29421C26.7434 4.00885 27.2764 3.86617 27.889 3.86617C28.4514 3.86617 28.934 4.00466 29.3368 4.28162C29.7397 4.55859 30.0418 4.89011 30.2433 5.27619L29.2739 5.6287C29.1396 5.37691 28.9424 5.17548 28.6822 5.0244C28.422 4.87333 28.1324 4.79779 27.8135 4.79779C27.503 4.79779 27.2092 4.88172 26.9322 5.04958C26.6553 5.20905 26.4329 5.46084 26.265 5.80495C26.0971 6.14067 26.0132 6.57291 26.0132 7.10167C26.0132 7.62203 26.0971 8.05847 26.265 8.41097C26.4413 8.75508 26.6637 9.01107 26.9322 9.17893C27.2092 9.34679 27.503 9.43072 27.8135 9.43072C28.1576 9.43072 28.4556 9.35518 28.7074 9.20411C28.9675 9.04464 29.1648 8.84741 29.2991 8.6124L30.2685 8.96491C30.0335 9.36777 29.6977 9.70349 29.2613 9.97207C28.8249 10.2322 28.3297 10.3623 27.7757 10.3623Z" fill="#467FC6" style="fill:#467FC6;fill:color(display-p3 0.2734 0.4997 0.7749);fill-opacity:1;"/>
<path d="M31.5652 10.2113V3.96689H32.3331L32.673 5.12512C32.8913 4.74743 33.185 4.44529 33.5543 4.21868C33.932 3.98367 34.381 3.86617 34.9014 3.86617V4.96146C34.8426 4.96146 34.7797 4.96146 34.7125 4.96146C34.6538 4.96146 34.595 4.96565 34.5363 4.97404C33.8229 5.0328 33.3235 5.28039 33.0381 5.71682C32.7612 6.15326 32.6227 6.75755 32.6227 7.52971V10.2113H31.5652Z" fill="#F1F1F3" style="fill:#F1F1F3;fill:color(display-p3 0.9451 0.9451 0.9529);fill-opacity:1;"/>
<path d="M38.5 10.3623C37.8454 10.3623 37.2914 10.2197 36.8382 9.9343C36.385 9.64054 36.0367 9.25027 35.7933 8.76348C35.5583 8.26829 35.4408 7.71435 35.4408 7.10167C35.4408 6.43862 35.575 5.8679 35.8436 5.3895C36.1122 4.9027 36.4731 4.52922 36.9263 4.26903C37.3879 4.00046 37.9041 3.86617 38.4748 3.86617C38.97 3.86617 39.4064 3.96689 39.7841 4.16832C40.1618 4.36136 40.4724 4.62574 40.7158 4.96146C40.9675 5.28878 41.148 5.66227 41.2571 6.08192C41.3746 6.50157 41.4166 6.93381 41.383 7.37863H36.5738C36.5906 7.899 36.7039 8.31026 36.9137 8.6124C37.1319 8.91455 37.3879 9.12857 37.6817 9.25447C37.9754 9.37197 38.2482 9.43072 38.5 9.43072C38.8525 9.43072 39.1463 9.37617 39.3813 9.26706C39.6247 9.14955 39.8177 8.99848 39.9604 8.81384L40.9801 9.11598C40.7535 9.47688 40.4304 9.77483 40.0107 10.0098C39.5911 10.2448 39.0875 10.3623 38.5 10.3623ZM36.5864 6.53514H40.2625C40.2625 6.24139 40.187 5.96022 40.0359 5.69165C39.8932 5.42307 39.6876 5.20485 39.419 5.03699C39.1589 4.86074 38.8441 4.77261 38.4748 4.77261C38.1643 4.77261 37.8705 4.83136 37.5936 4.94887C37.3166 5.06637 37.0858 5.25521 36.9011 5.51539C36.7249 5.77558 36.62 6.11549 36.5864 6.53514Z" fill="#F1F1F3" style="fill:#F1F1F3;fill:color(display-p3 0.9451 0.9451 0.9529);fill-opacity:1;"/>
<path d="M44.9088 10.3623C44.4388 10.3623 43.9982 10.2364 43.5869 9.98466C43.1757 9.72447 42.8442 9.35518 42.5924 8.87678C42.349 8.38999 42.2273 7.80248 42.2273 7.11426C42.2273 6.42603 42.349 5.84272 42.5924 5.36432C42.8442 4.87753 43.1757 4.50823 43.5869 4.25644C43.9982 3.99626 44.4388 3.86617 44.9088 3.86617C45.404 3.86617 45.8195 3.96689 46.1552 4.16832C46.4909 4.36136 46.7511 4.62154 46.9357 4.94887V1.8015H47.9933V7.85704C47.9933 8.06686 48.0016 8.3774 48.0184 8.78866C48.0352 9.19152 48.0982 9.66572 48.2073 10.2113H47.2127L46.9357 9.26706C46.7511 9.60278 46.4909 9.87135 46.1552 10.0728C45.8195 10.2658 45.404 10.3623 44.9088 10.3623ZM45.1858 9.4559C45.723 9.4559 46.151 9.25027 46.4699 8.83901C46.7973 8.42776 46.9609 7.85284 46.9609 7.11426C46.9609 6.36728 46.7973 5.79236 46.4699 5.3895C46.151 4.97824 45.723 4.77261 45.1858 4.77261C44.6487 4.77261 44.2164 4.97824 43.8891 5.3895C43.5702 5.79236 43.4107 6.36728 43.4107 7.11426C43.4107 7.85284 43.5702 8.42776 43.8891 8.83901C44.2164 9.25027 44.6487 9.4559 45.1858 9.4559Z" fill="#F1F1F3" style="fill:#F1F1F3;fill:color(display-p3 0.9451 0.9451 0.9529);fill-opacity:1;"/>
<path d="M50.819 2.78348C50.6092 2.78348 50.4245 2.70794 50.2651 2.55687C50.114 2.3974 50.0385 2.20856 50.0385 1.99034C50.0385 1.77212 50.114 1.58748 50.2651 1.4364C50.4245 1.28533 50.6092 1.20979 50.819 1.20979C51.0372 1.20979 51.2219 1.28533 51.3729 1.4364C51.5324 1.58748 51.6121 1.77212 51.6121 1.99034C51.6121 2.20856 51.5324 2.3974 51.3729 2.55687C51.2219 2.70794 51.0372 2.78348 50.819 2.78348ZM50.2902 10.2113V4.81038H49.4216V3.96689H51.3478V10.2113H50.2902Z" fill="#F1F1F3" style="fill:#F1F1F3;fill:color(display-p3 0.9451 0.9451 0.9529);fill-opacity:1;"/>
<path d="M56.3246 10.3623C55.8378 10.3623 55.4266 10.2658 55.0909 10.0728C54.7551 9.87135 54.4908 9.60278 54.2977 9.26706L54.0208 10.2113H53.2402V1.8015H54.2977V4.94887C54.4908 4.62154 54.7551 4.36136 55.0909 4.16832C55.4266 3.96689 55.8378 3.86617 56.3246 3.86617C56.803 3.86617 57.2437 3.99626 57.6465 4.25644C58.0578 4.50823 58.3851 4.87753 58.6285 5.36432C58.8803 5.84272 59.0062 6.42603 59.0062 7.11426C59.0062 7.80248 58.8803 8.38999 58.6285 8.87678C58.3851 9.35518 58.0578 9.72447 57.6465 9.98466C57.2437 10.2364 56.803 10.3623 56.3246 10.3623ZM56.0477 9.4559C56.5848 9.4559 57.0129 9.25027 57.3318 8.83901C57.6591 8.42776 57.8228 7.85284 57.8228 7.11426C57.8228 6.36728 57.6591 5.79236 57.3318 5.3895C57.0129 4.97824 56.5848 4.77261 56.0477 4.77261C55.5105 4.77261 55.0783 4.97824 54.751 5.3895C54.432 5.79236 54.2726 6.36728 54.2726 7.11426C54.2726 7.85284 54.432 8.42776 54.751 8.83901C55.0783 9.25027 55.5105 9.4559 56.0477 9.4559Z" fill="#F1F1F3" style="fill:#F1F1F3;fill:color(display-p3 0.9451 0.9451 0.9529);fill-opacity:1;"/>
<path d="M61.4537 2.78348C61.2438 2.78348 61.0592 2.70794 60.8997 2.55687C60.7487 2.3974 60.6731 2.20856 60.6731 1.99034C60.6731 1.77212 60.7487 1.58748 60.8997 1.4364C61.0592 1.28533 61.2438 1.20979 61.4537 1.20979C61.6719 1.20979 61.8565 1.28533 62.0076 1.4364C62.1671 1.58748 62.2468 1.77212 62.2468 1.99034C62.2468 2.20856 62.1671 2.3974 62.0076 2.55687C61.8565 2.70794 61.6719 2.78348 61.4537 2.78348ZM60.9249 10.2113V4.81038H60.0562V3.96689H61.9824V10.2113H60.9249Z" fill="#F1F1F3" style="fill:#F1F1F3;fill:color(display-p3 0.9451 0.9451 0.9529);fill-opacity:1;"/>
<path d="M65.3479 10.2113C64.9534 10.2113 64.647 10.1735 64.4288 10.098C64.219 10.014 64.0721 9.85876 63.9882 9.63215C63.9126 9.40554 63.8749 9.07821 63.8749 8.65017V1.81409H64.9324V8.47392C64.9324 8.79285 64.966 9.00687 65.0331 9.11598C65.1003 9.22509 65.2807 9.27965 65.5745 9.27965H65.8137V10.2113H65.3479Z" fill="#F1F1F3" style="fill:#F1F1F3;fill:color(display-p3 0.9451 0.9451 0.9529);fill-opacity:1;"/>
<path d="M67.7361 2.78348C67.5263 2.78348 67.3416 2.70794 67.1822 2.55687C67.0311 2.3974 66.9556 2.20856 66.9556 1.99034C66.9556 1.77212 67.0311 1.58748 67.1822 1.4364C67.3416 1.28533 67.5263 1.20979 67.7361 1.20979C67.9543 1.20979 68.139 1.28533 68.2901 1.4364C68.4495 1.58748 68.5293 1.77212 68.5293 1.99034C68.5293 2.20856 68.4495 2.3974 68.2901 2.55687C68.139 2.70794 67.9543 2.78348 67.7361 2.78348ZM67.2074 10.2113V7.51082V4.81038H66.3387V3.96689H68.2649V10.2113H67.2074Z" fill="#F1F1F3" style="fill:#F1F1F3;fill:color(display-p3 0.9451 0.9451 0.9529);fill-opacity:1;"/>
<path d="M72.0583 10.2113C71.6639 10.2113 71.3575 10.1735 71.1393 10.098C70.9295 10.014 70.7826 9.85876 70.6987 9.63215C70.6231 9.40554 70.5854 9.07821 70.5854 8.65017V4.81038H69.5278V3.96689H70.5854V2.3932H71.6429V3.96689H72.8515V4.81038H71.6429V8.47392C71.6429 8.79285 71.6723 9.00687 71.731 9.11598C71.7982 9.22509 71.9828 9.27965 72.2849 9.27965H72.8515V10.2113H72.0583Z" fill="#F1F1F3" style="fill:#F1F1F3;fill:color(display-p3 0.9451 0.9451 0.9529);fill-opacity:1;"/>
<path d="M73.8236 12.2382V11.3066H74.2517C74.5538 11.3066 74.7846 11.2814 74.9441 11.231C75.1035 11.1891 75.2294 11.0883 75.3218 10.9289C75.4225 10.7778 75.519 10.5428 75.6113 10.2239L73.3578 3.97948H74.5286L76.0645 8.78866L77.6005 3.97948H78.7587L76.5429 10.4882C76.3919 10.9331 76.2366 11.2814 76.0771 11.5332C75.9261 11.7933 75.7204 11.9738 75.4603 12.0745C75.2001 12.1836 74.835 12.2382 74.365 12.2382H73.8236Z" fill="#F1F1F3" style="fill:#F1F1F3;fill:color(display-p3 0.9451 0.9451 0.9529);fill-opacity:1;"/>
<path d="M22.2549 12.625L22.3369 13.401L0 13.379V12.625H22.2549Z" fill="#467FC6" style="fill:#467FC6;fill:color(display-p3 0.2734 0.4997 0.7749);fill-opacity:1;"/>
<path d="M26.2272 9.94689C26.6637 10.2239 27.1798 10.3623 27.7757 10.3623C28.3297 10.3623 28.8249 10.2322 29.2613 9.97207C29.6977 9.70349 30.0335 9.36777 30.2685 8.96491L29.2991 8.6124C29.1648 8.84741 28.9675 9.04464 28.7074 9.20411C28.4556 9.35518 28.1576 9.43072 27.8135 9.43072C27.503 9.43072 27.2092 9.34679 26.9322 9.17893C26.6637 9.01107 26.4413 8.75508 26.265 8.41097C26.0971 8.05847 26.0132 7.62203 26.0132 7.10167C26.0132 6.57291 26.0971 6.14067 26.265 5.80495C26.4329 5.46084 26.6553 5.20905 26.9322 5.04958C27.2092 4.88172 27.503 4.79779 27.8135 4.79779C28.1324 4.79779 28.422 4.87333 28.6822 5.0244C28.9424 5.17548 29.1396 5.37691 29.2739 5.6287L30.2433 5.27619C30.0418 4.89011 29.7397 4.55859 29.3368 4.28162C28.934 4.00466 28.4514 3.86617 27.889 3.86617C27.2764 3.86617 26.7434 4.00885 26.2902 4.29421C25.837 4.57118 25.4845 4.95726 25.2327 5.45245C24.9893 5.93924 24.8676 6.49318 24.8676 7.11426C24.8676 7.74373 24.9851 8.30186 25.2201 8.78866C25.4551 9.27545 25.7908 9.66153 26.2272 9.94689Z" fill="#F1F1F3" style="fill:#F1F1F3;fill:color(display-p3 0.9451 0.9451 0.9529);fill-opacity:1;"/>
</svg>
