<svg width="240" height="313" viewBox="0 0 240 313" fill="none" xmlns="http://www.w3.org/2000/svg">
<path d="M229.887 287H12C6.47715 287 2 282.523 2 277V29C2 27.8954 2.89543 27 4 27H22.8867C25.0959 27 26.8867 25.2091 26.8867 23V4C26.8867 2.89542 27.7822 2 28.8867 2H237.887C238.991 2 239.887 2.89545 239.887 4V277C239.887 282.523 235.41 287 229.887 287Z" fill="#5E6060" style="fill:#5E6060;fill:color(display-p3 0.3686 0.3765 0.3765);fill-opacity:1;"/>
<path d="M4.39064 275C4.39063 279.971 8.42007 284 13.3906 284H228.891C233.861 284 237.891 279.971 237.891 275L237.891 39C237.891 34.0295 233.861 30 228.891 30H13.3909C8.42033 30 4.3909 34.0295 4.3909 39L4.39064 275Z" fill="#1B1B1B" style="fill:#1B1B1B;fill:color(display-p3 0.1059 0.1059 0.1059);fill-opacity:1;"/>
<g clip-path="url(#clip0_633_2641)">
<path d="M222.562 295.582L236.575 310.147" stroke="#F1F1F3" style="stroke:#F1F1F3;stroke:color(display-p3 0.9451 0.9451 0.9529);stroke-opacity:1;" stroke-width="2"/>
<path d="M237.008 295.582L222.995 310.147" stroke="#F1F1F3" style="stroke:#F1F1F3;stroke:color(display-p3 0.9451 0.9451 0.9529);stroke-opacity:1;" stroke-width="2"/>
</g>
<path d="M39.216 308V297.312H46.464V298.608H40.72V301.856H44.96V303.152H40.72V306.704H46.464V308H39.216ZM47.0781 308L49.9741 303.92L47.2221 300.064H48.8061L50.7581 302.816L52.7261 300.064H54.3101L51.5581 303.92L54.4541 308H52.8701L50.7581 305.04L48.6621 308H47.0781ZM58.7571 308.192C57.9998 308.192 57.3438 308.016 56.7891 307.664C56.2345 307.301 55.8078 306.811 55.5091 306.192C55.2105 305.573 55.0611 304.864 55.0611 304.064C55.0611 303.275 55.2158 302.571 55.5251 301.952C55.8451 301.323 56.2931 300.832 56.8691 300.48C57.4451 300.117 58.1225 299.936 58.9011 299.936C59.6158 299.936 60.2291 300.112 60.7411 300.464C61.2531 300.816 61.6371 301.237 61.8931 301.728L60.6611 302.176C60.4905 301.856 60.2398 301.6 59.9091 301.408C59.5785 301.216 59.2105 301.12 58.8051 301.12C58.4105 301.12 58.0371 301.227 57.6851 301.44C57.3331 301.643 57.0505 301.963 56.8371 302.4C56.6238 302.827 56.5171 303.376 56.5171 304.048C56.5171 304.709 56.6238 305.264 56.8371 305.712C57.0611 306.149 57.3438 306.475 57.6851 306.688C58.0371 306.901 58.4105 307.008 58.8051 307.008C59.2425 307.008 59.6211 306.912 59.9411 306.72C60.2718 306.517 60.5225 306.267 60.6931 305.968L61.9251 306.416C61.6265 306.928 61.1998 307.355 60.6451 307.696C60.0905 308.027 59.4611 308.192 58.7571 308.192ZM66.9491 308.192C66.1171 308.192 65.4131 308.011 64.8371 307.648C64.2611 307.275 63.8185 306.779 63.5091 306.16C63.2105 305.531 63.0611 304.827 63.0611 304.048C63.0611 303.205 63.2318 302.48 63.5731 301.872C63.9145 301.253 64.3731 300.779 64.9491 300.448C65.5358 300.107 66.1918 299.936 66.9171 299.936C67.5465 299.936 68.1011 300.064 68.5811 300.32C69.0611 300.565 69.4558 300.901 69.7651 301.328C70.0851 301.744 70.3145 302.219 70.4531 302.752C70.6025 303.285 70.6558 303.835 70.6131 304.4H64.5011C64.5225 305.061 64.6665 305.584 64.9331 305.968C65.2105 306.352 65.5358 306.624 65.9091 306.784C66.2825 306.933 66.6291 307.008 66.9491 307.008C67.3971 307.008 67.7705 306.939 68.0691 306.8C68.3785 306.651 68.6238 306.459 68.8051 306.224L70.1011 306.608C69.8131 307.067 69.4025 307.445 68.8691 307.744C68.3358 308.043 67.6958 308.192 66.9491 308.192ZM64.5171 303.328H69.1891C69.1891 302.955 69.0931 302.597 68.9011 302.256C68.7198 301.915 68.4585 301.637 68.1171 301.424C67.7865 301.2 67.3865 301.088 66.9171 301.088C66.5225 301.088 66.1491 301.163 65.7971 301.312C65.4451 301.461 65.1518 301.701 64.9171 302.032C64.6931 302.363 64.5598 302.795 64.5171 303.328ZM74.0701 308C73.5688 308 73.1795 307.952 72.9021 307.856C72.6355 307.749 72.4488 307.552 72.3421 307.264C72.2461 306.976 72.1981 306.56 72.1981 306.016V297.328H73.5421V305.792C73.5421 306.197 73.5848 306.469 73.6701 306.608C73.7555 306.747 73.9848 306.816 74.3581 306.816H74.6621V308H74.0701ZM80.6066 308V297.312H87.8546V298.608H82.1106V301.856H86.3506V303.152H82.1106V306.704H87.8546V308H80.6066ZM88.4688 308L91.3648 303.92L88.6128 300.064H90.1968L92.1488 302.816L94.1168 300.064H95.7008L92.9488 303.92L95.8448 308H94.2608L92.1488 305.04L90.0528 308H88.4688ZM96.9638 310.576V300.064H97.9398L98.3078 301.312C98.5531 300.896 98.8891 300.565 99.3158 300.32C99.7424 300.064 100.265 299.936 100.884 299.936C101.492 299.936 102.052 300.101 102.564 300.432C103.086 300.752 103.502 301.221 103.812 301.84C104.132 302.448 104.292 303.189 104.292 304.064C104.292 304.928 104.132 305.669 103.812 306.288C103.502 306.907 103.086 307.381 102.564 307.712C102.052 308.032 101.492 308.192 100.884 308.192C100.265 308.192 99.7424 308.069 99.3158 307.824C98.8891 307.568 98.5531 307.227 98.3078 306.8V310.576H96.9638ZM100.532 307.04C101.214 307.04 101.758 306.779 102.164 306.256C102.58 305.733 102.788 305.003 102.788 304.064C102.788 303.115 102.58 302.384 102.164 301.872C101.758 301.349 101.214 301.088 100.532 301.088C99.8491 301.088 99.2998 301.349 98.8838 301.872C98.4784 302.384 98.2758 303.115 98.2758 304.064C98.2758 305.003 98.4784 305.733 98.8838 306.256C99.2998 306.779 99.8491 307.04 100.532 307.04ZM109.322 308.192C108.864 308.192 108.41 308.112 107.962 307.952C107.514 307.792 107.104 307.547 106.73 307.216C106.368 306.875 106.074 306.443 105.85 305.92C105.626 305.397 105.514 304.779 105.514 304.064C105.514 303.349 105.626 302.731 105.85 302.208C106.074 301.685 106.368 301.259 106.73 300.928C107.104 300.587 107.514 300.336 107.962 300.176C108.41 300.016 108.864 299.936 109.322 299.936C109.781 299.936 110.234 300.016 110.682 300.176C111.141 300.336 111.552 300.587 111.914 300.928C112.288 301.259 112.581 301.685 112.794 302.208C113.018 302.731 113.13 303.349 113.13 304.064C113.13 304.779 113.018 305.397 112.794 305.92C112.581 306.443 112.288 306.875 111.914 307.216C111.552 307.547 111.141 307.792 110.682 307.952C110.234 308.112 109.781 308.192 109.322 308.192ZM109.322 307.008C109.706 307.008 110.08 306.907 110.442 306.704C110.805 306.491 111.104 306.171 111.338 305.744C111.573 305.307 111.69 304.747 111.69 304.064C111.69 303.381 111.573 302.827 111.338 302.4C111.104 301.963 110.805 301.643 110.442 301.44C110.08 301.227 109.706 301.12 109.322 301.12C108.949 301.12 108.576 301.227 108.202 301.44C107.84 301.643 107.541 301.963 107.306 302.4C107.072 302.827 106.954 303.381 106.954 304.064C106.954 304.747 107.072 305.307 107.306 305.744C107.541 306.171 107.84 306.491 108.202 306.704C108.576 306.907 108.949 307.008 109.322 307.008ZM114.854 308V300.064H115.83L116.262 301.536C116.54 301.056 116.913 300.672 117.382 300.384C117.862 300.085 118.433 299.936 119.094 299.936V301.328C119.02 301.328 118.94 301.328 118.854 301.328C118.78 301.328 118.705 301.333 118.63 301.344C117.724 301.419 117.089 301.733 116.726 302.288C116.374 302.843 116.198 303.611 116.198 304.592V308H114.854ZM122.958 308C122.457 308 122.067 307.952 121.79 307.856C121.523 307.749 121.337 307.552 121.23 307.264C121.134 306.976 121.086 306.56 121.086 306.016V301.136H119.742V300.064H121.086V298.064H122.43V300.064H123.966V301.136H122.43V305.792C122.43 306.197 122.467 306.469 122.542 306.608C122.627 306.747 122.862 306.816 123.246 306.816H123.966V308H122.958Z" fill="#D9D9D9" style="fill:#D9D9D9;fill:color(display-p3 0.8510 0.8510 0.8510);fill-opacity:1;"/>
<path d="M22.8437 312L8.10691 312L8.10691 294L22.8438 294L22.8437 300.545L21.1595 300.545L21.1595 295.636L9.79112 295.636L9.79112 310.364L21.1595 310.364L21.1595 305.455L22.8437 305.455L22.8437 312Z" fill="#D9D9D9" style="fill:#D9D9D9;fill:color(display-p3 0.8510 0.8510 0.8510);fill-opacity:1;"/>
<path fill-rule="evenodd" clip-rule="evenodd" d="M24.9507 302.181L24.9507 298.908L30.0033 302.999L24.9507 307.09L24.9507 303.817L15.6875 303.817L15.6875 302.181L24.9507 302.181Z" fill="#D9D9D9" style="fill:#D9D9D9;fill:color(display-p3 0.8510 0.8510 0.8510);fill-opacity:1;"/>
<path d="M4.82842 23L21 23C22.1046 23 23 22.1046 23 21L23 4.82843C23 3.04662 20.8457 2.15429 19.5858 3.41421L3.41421 19.5858C2.15428 20.8457 3.04662 23 4.82842 23Z" fill="#F1F1F3" style="fill:#F1F1F3;fill:color(display-p3 0.9451 0.9451 0.9529);fill-opacity:1;"/>
<path d="M213.12 21V13.064H214.096L214.528 14.536C214.805 14.056 215.179 13.672 215.648 13.384C216.128 13.0853 216.699 12.936 217.36 12.936V14.328C217.285 14.328 217.205 14.328 217.12 14.328C217.045 14.328 216.971 14.3333 216.896 14.344C215.989 14.4187 215.355 14.7333 214.992 15.288C214.64 15.8427 214.464 16.6107 214.464 17.592V21H213.12ZM221.07 21.192C220.451 21.192 219.955 21.064 219.582 20.808C219.208 20.5413 218.936 20.1787 218.766 19.72C218.606 19.2507 218.526 18.7173 218.526 18.12V13.048H219.87V17.8C219.87 18.3867 219.939 18.84 220.078 19.16C220.216 19.48 220.408 19.704 220.654 19.832C220.91 19.9493 221.203 20.008 221.534 20.008C222.163 20.008 222.654 19.7893 223.006 19.352C223.368 18.904 223.55 18.2587 223.55 17.416V13.048H224.894V21H223.886L223.55 19.848C223.326 20.232 223.022 20.552 222.638 20.808C222.254 21.064 221.731 21.192 221.07 21.192ZM227.136 21V13.064H228.128L228.48 14.264C228.704 13.8907 229.018 13.576 229.424 13.32C229.829 13.064 230.368 12.936 231.04 12.936C232 12.936 232.677 13.2187 233.072 13.784C233.466 14.3387 233.664 15.0693 233.664 15.976V21H232.32V16.376C232.32 15.9707 232.282 15.5973 232.208 15.256C232.133 14.904 231.968 14.6213 231.712 14.408C231.466 14.1947 231.088 14.088 230.576 14.088C229.925 14.088 229.413 14.312 229.04 14.76C228.666 15.1973 228.48 15.8427 228.48 16.696V21H227.136Z" fill="#D9D9D9" style="fill:#D9D9D9;fill:color(display-p3 0.8510 0.8510 0.8510);fill-opacity:1;"/>
<path d="M212.112 45.0103L198.398 47.6672C198.166 47.7121 198 47.927 198 48.1673V66.8275C198 67.0677 198.166 67.2826 198.398 67.3276L212.112 69.9844C212.143 69.9902 212.173 70 212.204 70C212.317 70 212.422 69.9648 212.51 69.8906C212.623 69.7949 212.694 69.6484 212.694 69.4999V45.4948C212.694 45.3464 212.623 45.1998 212.51 45.1041C212.397 45.0084 212.256 44.983 212.112 45.0103ZM213.673 47.9954V51.4961H214.653V52.4963H213.673V54.9968H214.653V55.997H213.673V58.4976H214.653V59.4978H213.673V62.4984H214.653V63.4986H213.673V66.9994H221.02C221.56 66.9994 222 66.5501 222 65.9992V48.9956C222 48.4447 221.56 47.9954 221.02 47.9954H213.673ZM215.633 51.4961H219.551V52.4963H215.633V51.4961ZM201.276 52.8401H203.786L205.102 55.6376C205.205 55.8583 205.297 56.1299 205.378 56.4346H205.393C205.445 56.253 205.544 55.9677 205.684 55.6063L207.138 52.8401H209.434L206.694 57.4661L209.51 62.1859H207.077L205.485 59.1383C205.425 59.025 205.364 58.816 205.301 58.5132H205.286C205.255 58.6558 205.182 58.8785 205.071 59.1696L203.48 62.1859H201.031L203.954 57.513L201.276 52.8401ZM215.633 54.9968H219.551V55.997H215.633V54.9968ZM215.633 58.4976H219.551V59.4978H215.633V58.4976ZM215.633 62.4984H219.551V63.4986H215.633V62.4984Z" fill="#3A7D4B" style="fill:#3A7D4B;fill:color(display-p3 0.2275 0.4902 0.2941);fill-opacity:1;"/>
<path fill-rule="evenodd" clip-rule="evenodd" d="M203.786 52.8401H201.276L203.954 57.513L201.031 62.1859H203.48L205.071 59.1696C205.182 58.8785 205.255 58.6558 205.286 58.5132H205.301C205.364 58.816 205.425 59.025 205.485 59.1383L207.077 62.1859H209.51L206.694 57.4661L209.434 52.8401H207.138L205.684 55.6063C205.544 55.9677 205.445 56.253 205.393 56.4346H205.378C205.297 56.1299 205.205 55.8583 205.102 55.6376L203.786 52.8401Z" fill="#D9D9D9" style="fill:#D9D9D9;fill:color(display-p3 0.8510 0.8510 0.8510);fill-opacity:1;"/>
<path fill-rule="evenodd" clip-rule="evenodd" d="M219.551 51.4961H215.633V52.4963H219.551V51.4961Z" fill="#D9D9D9" style="fill:#D9D9D9;fill:color(display-p3 0.8510 0.8510 0.8510);fill-opacity:1;"/>
<path fill-rule="evenodd" clip-rule="evenodd" d="M219.551 54.9968H215.633V55.997H219.551V54.9968Z" fill="#D9D9D9" style="fill:#D9D9D9;fill:color(display-p3 0.8510 0.8510 0.8510);fill-opacity:1;"/>
<path fill-rule="evenodd" clip-rule="evenodd" d="M219.551 58.4976H215.633V59.4978H219.551V58.4976Z" fill="#D9D9D9" style="fill:#D9D9D9;fill:color(display-p3 0.8510 0.8510 0.8510);fill-opacity:1;"/>
<path fill-rule="evenodd" clip-rule="evenodd" d="M219.551 62.4984H215.633V63.4986H219.551V62.4984Z" fill="#D9D9D9" style="fill:#D9D9D9;fill:color(display-p3 0.8510 0.8510 0.8510);fill-opacity:1;"/>
<path fill-rule="evenodd" clip-rule="evenodd" d="M213.673 62.4984H214.653V63.4986H213.673V62.4984Z" fill="#D9D9D9" style="fill:#D9D9D9;fill:color(display-p3 0.8510 0.8510 0.8510);fill-opacity:1;"/>
<path fill-rule="evenodd" clip-rule="evenodd" d="M213.673 58.4976H214.653V59.4978H213.673V58.4976Z" fill="#D9D9D9" style="fill:#D9D9D9;fill:color(display-p3 0.8510 0.8510 0.8510);fill-opacity:1;"/>
<path fill-rule="evenodd" clip-rule="evenodd" d="M213.673 54.9968H214.653V55.997H213.673V54.9968Z" fill="#D9D9D9" style="fill:#D9D9D9;fill:color(display-p3 0.8510 0.8510 0.8510);fill-opacity:1;"/>
<path fill-rule="evenodd" clip-rule="evenodd" d="M213.673 51.4961H214.653V52.4963H213.673V51.4961Z" fill="#D9D9D9" style="fill:#D9D9D9;fill:color(display-p3 0.8510 0.8510 0.8510);fill-opacity:1;"/>
<defs>
<clipPath id="clip0_633_2641">
<rect width="16" height="16" fill="white" style="fill:white;fill-opacity:1;" transform="translate(222 295)"/>
</clipPath>
</defs>
</svg>
