<svg width="238" height="285" viewBox="0 0 238 285" fill="none" xmlns="http://www.w3.org/2000/svg">
<path d="M227.887 285H10C4.47715 285 0 280.523 0 275V27C0 25.8954 0.895431 25 2 25H20.8867C23.0959 25 24.8867 23.2091 24.8867 21V2C24.8867 0.895416 25.7822 0 26.8867 0H235.887C236.991 0 237.887 0.895447 237.887 2V275C237.887 280.523 233.41 285 227.887 285Z" fill="#5E6060" style="fill:#5E6060;fill:color(display-p3 0.3686 0.3765 0.3765);fill-opacity:1;"/>
<path d="M2.39062 273C2.39062 277.971 6.42006 282 11.3906 282H226.891C231.861 282 235.891 277.971 235.891 273L235.891 37C235.891 32.0295 231.861 28 226.891 28H11.3909C6.42032 28 2.39089 32.0295 2.39089 37L2.39062 273Z" fill="#1B1B1B" style="fill:#1B1B1B;fill:color(display-p3 0.1059 0.1059 0.1059);fill-opacity:1;"/>
</svg>
